<svg xmlns="http://www.w3.org/2000/svg" xmlns:xlink="http://www.w3.org/1999/xlink" version="1.1" x="0px" y="0px" viewBox="0 0 100 100" enable-background="new 0 0 100 100" xml:space="preserve"><path d="M36.5,28.8l0.1-4.3c0-0.5-0.3-0.8-0.8-0.9c-0.5,0-0.8,0.3-0.9,0.8l-0.1,4.3c0,0.5,0.3,0.8,0.8,0.9c0,0,0,0,0,0  C36.1,29.6,36.5,29.3,36.5,28.8z"></path><path d="M33,46.5c-0.4-0.1-0.9,0.2-0.9,0.7l-0.6,4.3c-0.1,0.5,0.2,0.9,0.7,0.9c0,0,0.1,0,0.1,0c0.4,0,0.8-0.3,0.8-0.7l0.6-4.3  C33.7,47,33.4,46.6,33,46.5z"></path><path d="M28.2,41.6c-0.5,0-0.8,0.3-0.9,0.8l-0.1,3.5c0,0.5,0.3,0.8,0.8,0.9c0,0,0,0,0,0c0.4,0,0.8-0.3,0.8-0.8l0.1-3.5  C29.1,42,28.7,41.6,28.2,41.6z"></path><path d="M31.9,40.4c0.4,0,0.8-0.4,0.8-0.8l0.1-4.3c0-0.5-0.3-0.8-0.8-0.9c-0.5,0-0.8,0.3-0.9,0.8l-0.1,4.3  C31.1,40,31.5,40.4,31.9,40.4C31.9,40.4,31.9,40.4,31.9,40.4z"></path><path d="M42.6,19.4c-0.4-0.1-0.9,0.1-1,0.5l-0.9,2.8c-0.1,0.4,0.1,0.9,0.5,1c0.1,0,0.2,0,0.3,0c0.3,0,0.7-0.2,0.8-0.6l0.9-2.8  C43.3,20.1,43.1,19.6,42.6,19.4z"></path><path d="M37.4,40.7c-0.1-0.4-0.6-0.7-1-0.6c-0.4,0.1-0.7,0.5-0.6,1l0.9,3.7c0.1,0.4,0.4,0.6,0.8,0.6c0.1,0,0.1,0,0.2,0  c0.4-0.1,0.7-0.5,0.6-1L37.4,40.7z"></path><path d="M27.8,36.9l-1.9-2.8c-0.3-0.4-0.8-0.5-1.2-0.2c-0.4,0.3-0.5,0.8-0.2,1.2l1.9,2.8c0.2,0.2,0.4,0.4,0.7,0.4  c0.2,0,0.3,0,0.5-0.1C28,37.8,28.1,37.3,27.8,36.9z"></path><path d="M31.6,22.3c0.4-0.3,0.5-0.8,0.2-1.2l-1.9-2.8c-0.3-0.4-0.8-0.5-1.2-0.2c-0.4,0.3-0.5,0.8-0.2,1.2l1.9,2.8  c0.2,0.2,0.4,0.4,0.7,0.4C31.3,22.4,31.4,22.4,31.6,22.3z"></path><path d="M27.4,30.2c0.1,0.3,0.4,0.5,0.8,0.5c0.1,0,0.2,0,0.3-0.1c0.4-0.2,0.6-0.6,0.5-1.1l-1.6-4c-0.2-0.4-0.7-0.6-1.1-0.5  c-0.4,0.2-0.6,0.6-0.5,1.1L27.4,30.2z"></path><path d="M40.2,30.7c-0.1-0.4-0.6-0.7-1-0.5c-0.4,0.1-0.7,0.6-0.5,1l1.3,4.2c0.1,0.4,0.4,0.6,0.8,0.6c0.1,0,0.2,0,0.2,0  c0.4-0.1,0.7-0.6,0.5-1L40.2,30.7z"></path><path d="M20,65.7c0.5,0,0.8-0.4,0.8-0.8v-0.1v-6v-0.1c0-0.5-0.4-0.8-0.8-0.8s-0.8,0.4-0.8,0.8v0.1v6v0.1  C19.1,65.3,19.5,65.7,20,65.7z"></path><path d="M22.8,69.1c-0.5,0-0.8,0.4-0.8,0.8v0.2v8.9v0.5c0,0.5,0.4,0.8,0.8,0.8s0.8-0.4,0.8-0.8v-0.5v-8.9V70  C23.6,69.5,23.2,69.1,22.8,69.1z"></path><path d="M45.3,61.8c-0.5,0-0.8,0.4-0.8,0.8v6c0,0.5,0.4,0.8,0.8,0.8s0.8-0.4,0.8-0.8v-6C46.1,62.1,45.7,61.8,45.3,61.8z"></path><path d="M48.1,73.2c-0.5,0-0.8,0.4-0.8,0.8v9.4c0,0.5,0.4,0.8,0.8,0.8s0.8-0.4,0.8-0.8V74C48.9,73.5,48.5,73.2,48.1,73.2z"></path><path d="M83.4,49.8h-2.3c0-0.2,0-0.3,0.1-0.5c0-0.3,0.1-0.7,0.1-1c0-0.3,0.1-0.5,0.1-0.8c0-0.6,0.1-1.2,0.1-1.9c0-1.5-0.1-3-0.4-4.5  l1.4-0.4c0.4-0.1,0.7-0.6,0.5-1c-0.1-0.4-0.6-0.7-1-0.5l-1.2,0.4c-0.5-2.3-1.4-4.5-2.4-6.5l0.6-1.6c0.2-0.4,0-0.9-0.5-1.1  c-0.4-0.2-0.9,0-1.1,0.5l-0.2,0.4c-1-1.5-2.1-2.9-3.3-4l0.7-1.8c0.2-0.4-0.1-0.9-0.5-1.1c-0.4-0.2-0.9,0.1-1.1,0.5l-0.5,1.2  c-1.3-1.1-2.7-1.9-4.2-2.6l0.4-0.6c0.3-0.4,0.2-0.9-0.2-1.2c-0.4-0.3-0.9-0.2-1.2,0.2l-0.7,1c-1.8-0.6-3.7-1-5.7-1  c-0.2,0-0.5,0-0.7,0v-2.4c0-0.5-0.4-0.8-0.8-0.8s-0.8,0.4-0.8,0.8v2.5c0,0,0,0-0.1,0c-0.2,0-0.3,0-0.5,0.1c-0.2,0-0.5,0.1-0.7,0.1  c-0.2,0-0.3,0.1-0.5,0.1c-0.3,0.1-0.6,0.2-0.9,0.2c-0.3,0.1-0.5,0.2-0.8,0.3c-0.1,0-0.3,0.1-0.4,0.1c-0.2,0.1-0.5,0.2-0.7,0.3  c-0.1,0-0.2,0.1-0.3,0.1c0,0-0.1,0-0.1,0.1l-1.1-1.6c-0.3-0.4-0.8-0.5-1.1-0.2c-0.4,0.3-0.5,0.8-0.2,1.1l1,1.5  c-0.4,0.2-0.9,0.5-1.3,0.8c-0.4-2-1.1-3.8-2.2-5.4l0.5-1.4c0.2-0.4-0.1-0.9-0.5-1.1c-0.4-0.2-0.9,0.1-1.1,0.5l-0.1,0.4  c-1.6-1.9-3.5-3.3-5.8-4.3l0.3-0.9c0.2-0.4-0.1-0.9-0.5-1.1c-0.4-0.2-0.9,0.1-1.1,0.5L40.3,13c-1.4-0.4-2.9-0.7-4.4-0.7h-0.3  c-1.4,0-2.8,0.2-4.1,0.6l-0.6-1.3c-0.2-0.4-0.7-0.6-1.1-0.4c-0.4,0.2-0.6,0.7-0.4,1.1l0.5,1.2c-1.7,0.7-3.2,1.6-4.5,2.8l-0.1-0.3  c-0.2-0.4-0.6-0.6-1.1-0.5c-0.4,0.2-0.6,0.6-0.5,1.1l0.4,1c-2.3,2.5-3.7,5.8-3.9,9.5l-2.4-0.9c-0.4-0.2-0.9,0.1-1.1,0.5  c-0.2,0.4,0.1,0.9,0.5,1.1l2.9,1V38l-1.3-1.2c-0.3-0.3-0.9-0.3-1.2,0c-0.3,0.3-0.3,0.9,0,1.2l2.4,2.3v9.5H18c-0.5,0-0.8,0.4-0.8,0.8  s0.4,0.8,0.8,0.8h2.2V55h-1.1c-2,0-3.7,1.7-3.7,3.7v6.1c0,0.2,0,0.5,0.1,0.7c0,0.1,0,0.1,0.1,0.2c0,0.2,0.1,0.3,0.1,0.4  c0,0.1,0.1,0.2,0.1,0.2c0.1,0.1,0.1,0.3,0.2,0.4c0,0.1,0.1,0.1,0.1,0.2c0.1,0.1,0.2,0.2,0.3,0.3c0.1,0.1,0.1,0.1,0.2,0.2  c0.1,0.1,0.2,0.2,0.3,0.3c0.1,0,0.1,0.1,0.2,0.1c0.2,0.1,0.3,0.2,0.5,0.3c0,0,0.1,0,0.1,0.1c0.2,0.1,0.4,0.2,0.6,0.2v12.2  c0,2.6,2.1,4.7,4.7,4.7h20.7c0,0,0,0,0,0c0,0,0,0.1,0,0.1c0.1,0.3,0.1,0.5,0.2,0.7c0,0.1,0.1,0.2,0.1,0.3c0.1,0.2,0.2,0.3,0.3,0.5  c0.1,0.1,0.1,0.2,0.2,0.3c0.1,0.1,0.2,0.3,0.3,0.4c0.1,0.1,0.2,0.2,0.3,0.2c0.1,0.1,0.3,0.2,0.4,0.3c0.1,0.1,0.2,0.1,0.3,0.2  c0.1,0.1,0.3,0.2,0.5,0.3c0.1,0,0.2,0.1,0.3,0.1c0.2,0.1,0.4,0.1,0.6,0.2c0.1,0,0.2,0.1,0.3,0.1c0.3,0.1,0.6,0.1,0.9,0.1h25.4  c2.6,0,4.7-2.1,4.7-4.7V72.3c0,0,0.1,0,0.1,0c1.6-0.4,2.9-1.7,3.6-2.7v-6.1c-0.4-1.4-0.9-2.4-1.6-3.2c-0.4-0.5-0.8-0.8-1.4-1.1  c0,0-0.1,0-0.1,0c-0.2-0.1-0.3-0.1-0.5-0.2c-0.1,0-0.2,0-0.3-0.1c-0.1,0-0.2,0-0.3,0c0.1-0.1,0.1-0.2,0.2-0.4c0-0.1,0.1-0.1,0.1-0.2  c0.2-0.4,0.5-0.9,0.7-1.3c0.1-0.2,0.1-0.3,0.2-0.5c0.2-0.3,0.3-0.7,0.4-1.1c0.1-0.2,0.2-0.5,0.3-0.8c0.1-0.3,0.2-0.6,0.3-0.9  c0.1-0.3,0.2-0.6,0.3-0.9c0.1-0.3,0.1-0.5,0.2-0.8c0.1-0.2,0.1-0.4,0.2-0.6h2.6c0.5,0,0.8-0.4,0.8-0.8S83.9,49.8,83.4,49.8z   M65.4,24.7c-0.1,0.3,0,0.7,0.3,1c0.1,0.1,0.3,0.1,0.5,0.1c0.3,0,0.5-0.1,0.7-0.4l0.1-0.2c1.7,0.7,3.3,1.7,4.7,3l-0.1,0.3  c-0.2,0.4,0.1,0.9,0.5,1.1c0.1,0,0.2,0.1,0.3,0.1c0.2,0,0.4-0.1,0.6-0.3c1.2,1.3,2.3,2.8,3.2,4.4l-0.4,1c-0.2,0.4,0,0.9,0.5,1.1  c0.1,0,0.2,0.1,0.3,0.1c0.2,0,0.4-0.1,0.5-0.2c0.6,1.4,1.1,2.9,1.4,4.5l-1.9,0.6c-0.4,0.1-0.7,0.6-0.5,1c0.1,0.4,0.4,0.6,0.8,0.6  c0.1,0,0.2,0,0.2,0l1.7-0.5c0.2,1.2,0.3,2.5,0.3,3.8c0,0.7,0,1.3-0.1,1.9c0,0.3-0.1,0.5-0.1,0.8c0,0.4-0.1,0.8-0.1,1.1  c0,0.1,0,0.2-0.1,0.3h-0.2c-0.5,0-0.8,0.4-0.8,0.8c0,0.4,0.3,0.8,0.7,0.8c-0.1,0.2-0.1,0.4-0.2,0.7c-0.1,0.4-0.2,0.8-0.3,1.2  c-0.1,0.2-0.1,0.3-0.2,0.5c-0.2,0.5-0.3,0.9-0.5,1.4c0,0.1-0.1,0.2-0.1,0.2c-0.5,1.2-1.2,2.4-1.9,3.5H56.1v-0.1  c0-1.9-1.4-3.4-3.2-3.7l-1.3-1.9c-0.3-0.4-0.8-0.5-1.2-0.2c-0.4,0.3-0.5,0.8-0.2,1.2l0.6,0.9h-6c-0.5-1.1-0.9-2.3-1.1-3.6h0.7  c0.5,0,0.8-0.4,0.8-0.8s-0.4-0.8-0.8-0.8h-1C43.1,48.4,43,47,43,45.6c0-0.8,0-1.5,0.1-2.3l1,0.9c0.2,0.1,0.4,0.2,0.6,0.2  c0.2,0,0.4-0.1,0.6-0.3c0.3-0.3,0.3-0.9,0-1.2l-1.8-1.7c0.7-3.8,2.2-7.3,4.3-10.1l1.1,0.4c0.1,0,0.2,0,0.3,0c0.3,0,0.7-0.2,0.8-0.5  c0.2-0.4-0.1-0.9-0.5-1.1l-0.6-0.2c0.7-0.8,1.4-1.5,2.2-2.1c0,0,0.1-0.1,0.1-0.1c0.4-0.3,0.8-0.6,1.2-0.9c0.1-0.1,0.2-0.2,0.4-0.2  c0.3-0.2,0.6-0.3,0.9-0.5l0.9,1.3c0.2,0.2,0.4,0.4,0.7,0.4c0.2,0,0.3,0,0.5-0.1c0.4-0.3,0.5-0.8,0.2-1.1l-0.7-1.1  c0.7-0.3,1.5-0.6,2.2-0.8c0.1,0,0.3-0.1,0.4-0.1c0.3-0.1,0.7-0.1,1-0.2v1.6c0,0.5,0.4,0.8,0.8,0.8s0.8-0.4,0.8-0.8V24  c0.2,0,0.5,0,0.7,0C62.6,24,64,24.3,65.4,24.7z M77.7,70.1h-1.5H44.4c-0.8,0-1.4-0.6-1.4-1.4v-6.1c0-0.8,0.6-1.4,1.4-1.4h29.4h3.9  c0.8,0,1.4,0.6,1.4,1.4v6.1C79.2,69.4,78.5,70.1,77.7,70.1z M46.5,29l-2.4-0.9c-0.4-0.2-0.9,0.1-1.1,0.5c-0.2,0.4,0.1,0.9,0.5,1.1  l1.9,0.7c-1.9,2.6-3.2,5.7-4,9.1l-0.7-0.7c-0.3-0.3-0.9-0.3-1.2,0c-0.3,0.3-0.3,0.9,0,1.2l1.5,1.4c-0.2,1.4-0.3,2.8-0.3,4.2  c0,1.4,0.1,2.8,0.3,4.2h-1.5c-0.5,0-0.8,0.4-0.8,0.8s0.4,0.8,0.8,0.8h1.8c0.3,1.2,0.6,2.4,1,3.6H22.5v-3.6h0.4  c0.5,0,0.8-0.4,0.8-0.8s-0.4-0.8-0.8-0.8h-0.4v-7.4c0.1,0.1,0.3,0.1,0.4,0.1c0.2,0,0.4-0.1,0.6-0.3c0.3-0.3,0.3-0.9,0-1.2l-1-0.9  V29.5l0.1,0c0.1,0,0.2,0,0.3,0c0.3,0,0.7-0.2,0.8-0.5c0.2-0.4-0.1-0.9-0.5-1.1l-0.7-0.2v-0.1c0-2.9,0.9-5.5,2.5-7.7l0.2,0.5  c0.1,0.3,0.4,0.5,0.8,0.5c0.1,0,0.2,0,0.3-0.1c0.4-0.2,0.6-0.6,0.5-1.1l-0.5-1.4c1.3-1.3,2.8-2.3,4.5-3l0.4,1  c0.1,0.3,0.4,0.5,0.8,0.5c0.1,0,0.2,0,0.3-0.1c0.4-0.2,0.6-0.7,0.4-1.1L32.4,15c1-0.3,2.1-0.4,3.2-0.4h0.3c1.3,0,2.5,0.2,3.6,0.5  l-0.3,0.8c-0.2,0.4,0.1,0.9,0.5,1.1c0.1,0,0.2,0.1,0.3,0.1c0.3,0,0.7-0.2,0.8-0.5l0.3-0.8c2.3,1,4.3,2.6,5.7,4.7l-0.4,1.1  c-0.2,0.4,0.1,0.9,0.5,1.1c0.1,0,0.2,0.1,0.3,0.1c0.3,0,0.5-0.1,0.7-0.4c0.6,1.3,1,2.7,1.1,4.3C48.1,27.2,47.2,28.1,46.5,29z   M17.7,58.7c0-0.8,0.6-1.4,1.4-1.4h3.4h29.9c0.8,0,1.4,0.6,1.4,1.4v0.1h-9.4c-2,0-3.7,1.7-3.7,3.7v3.7H20.6h-1.5  c-0.8,0-1.4-0.6-1.4-1.4V58.7z M20.6,80.7V68.5h20.1v0.1c0,1.8,1.2,3.3,2.9,3.6v10.9H23.1C21.7,83.1,20.6,82,20.6,80.7z M73.8,87  H48.4c-1.4,0-2.5-1.1-2.5-2.5v-1.3V72.3h30.3v12.1C76.2,85.9,75.1,87,73.8,87z"></path><path d="M50.9,43c0.2,0,0.4-0.1,0.6-0.3c0.3-0.3,0.3-0.9-0.1-1.2l-4.2-3.8c-0.3-0.3-0.9-0.3-1.2,0.1c-0.3,0.3-0.3,0.9,0.1,1.2  l4.2,3.8C50.5,42.9,50.7,43,50.9,43z"></path><path d="M55.9,30.4c-0.3-0.4-0.8-0.5-1.2-0.2c-0.4,0.3-0.5,0.8-0.2,1.2l1.9,2.8c0.2,0.2,0.4,0.4,0.7,0.4c0.2,0,0.3,0,0.5-0.1  c0.4-0.3,0.5-0.8,0.2-1.2L55.9,30.4z"></path><path d="M50.8,45.9c-0.3-0.4-0.8-0.5-1.2-0.2c-0.4,0.3-0.5,0.8-0.2,1.2l1.9,2.8c0.2,0.2,0.4,0.4,0.7,0.4c0.2,0,0.3,0,0.5-0.1  c0.4-0.3,0.5-0.8,0.2-1.2L50.8,45.9z"></path><path d="M65.3,37.4C65.3,37.4,65.3,37.4,65.3,37.4c0.5,0,0.8-0.4,0.9-0.8l0.1-4.3c0-0.5-0.3-0.8-0.8-0.9c-0.4,0-0.8,0.3-0.9,0.8  l-0.1,4.3C64.4,37,64.8,37.4,65.3,37.4z"></path><path d="M64.5,51.5c-0.5-0.1-0.9,0.2-0.9,0.7l-0.6,4.3c-0.1,0.5,0.2,0.9,0.7,0.9c0,0,0.1,0,0.1,0c0.4,0,0.8-0.3,0.8-0.7l0.6-4.3  C65.3,52,64.9,51.6,64.5,51.5z"></path><path d="M59.8,46.6c-0.5,0-0.8,0.3-0.9,0.8l-0.1,3.5c0,0.5,0.3,0.8,0.8,0.9c0,0,0,0,0,0c0.4,0,0.8-0.3,0.8-0.8l0.1-3.5  C60.6,47,60.2,46.6,59.8,46.6z"></path><path d="M62.6,44.5c0,0.5,0.3,0.8,0.8,0.9c0,0,0,0,0,0c0.4,0,0.8-0.4,0.8-0.8l0.1-4.3c0-0.5-0.3-0.8-0.8-0.9c-0.4,0-0.8,0.3-0.9,0.8  L62.6,44.5z"></path><path d="M68.2,49.8c0.1,0.4,0.4,0.6,0.8,0.6c0.1,0,0.1,0,0.2,0c0.4-0.1,0.7-0.5,0.6-1l-0.9-3.7c-0.1-0.4-0.5-0.7-1-0.6  c-0.4,0.1-0.7,0.5-0.6,1L68.2,49.8z"></path><path d="M71.9,51.8l0.9,3.7c0.1,0.4,0.4,0.6,0.8,0.6c0.1,0,0.1,0,0.2,0c0.4-0.1,0.7-0.5,0.6-1l-0.9-3.7c-0.1-0.4-0.5-0.7-1-0.6  C72,50.9,71.8,51.4,71.9,51.8z"></path><path d="M55.3,36.4c-0.5,0-0.8,0.3-0.9,0.8l-0.1,3.5c0,0.5,0.3,0.8,0.8,0.9c0,0,0,0,0,0c0.4,0,0.8-0.3,0.8-0.8l0.1-3.5  C56.1,36.8,55.8,36.4,55.3,36.4z"></path><path d="M62,32.1C62,32.1,62,32.1,62,32.1c0.5,0,0.9-0.3,0.9-0.8L63,29c0-0.5-0.3-0.8-0.8-0.9c-0.4,0-0.8,0.3-0.9,0.8l-0.1,2.3  C61.2,31.7,61.5,32.1,62,32.1z"></path><path d="M70.9,42.5C71,42.5,71,42.5,70.9,42.5c0.5,0,0.8-0.3,0.9-0.8l0.1-3.5c0-0.5-0.3-0.8-0.8-0.9c-0.5,0-0.8,0.3-0.9,0.8  l-0.1,3.5C70.1,42.1,70.5,42.5,70.9,42.5z"></path></svg>