<svg xmlns="http://www.w3.org/2000/svg" xmlns:xlink="http://www.w3.org/1999/xlink" version="1.1" x="0px" y="0px" viewBox="0 0 100 100" style="enable-background:new 0 0 100 100;" xml:space="preserve"><path d="M96.127,56.307c-0.155-0.293-0.31-0.579-0.458-0.865c-8.041-15.826,4.273-20.414-1.289-32.326  c-0.745-2.206-2.068-4.182-3.809-5.779c-0.979-1.059-1.878-1.684-2.743-1.999c-2.366-1.357-5.161-2.136-8.15-2.136  c-4.273,0-8.145,1.598-10.934,4.175c-0.79,0.601-0.596,0.772-0.79,0.601c-5.058-2.743-10.962-4.33-17.271-4.33l-0.014,0.023  c-0.447-0.014-0.899-0.023-1.352-0.023c-6.306,0-12.214,1.586-17.274,4.33c-0.189,0.171-0.543-0.45-0.787-0.601  c-2.787-2.578-6.652-4.175-10.931-4.175c-2.995,0-5.791,0.779-8.15,2.136c-0.865,0.315-1.77,0.939-2.743,1.999  c-1.744,1.598-3.064,3.574-3.809,5.779c-5.567,11.913,6.752,16.5-1.294,32.326c-0.143,0.286-0.298,0.572-0.456,0.865  c-1.395,2.566,5.685,0.818,12.38-4.446c0.012-0.005,0.017-0.017,0.029-0.022h0.002c0.559-0.358,1.108-0.744,1.653-1.152  c-0.155,1.272-0.258,2.562-0.258,3.879c0,17.806,14.436,32.233,32.239,32.233c17.806,0,32.239-14.428,32.239-32.233  c0-1.454-0.125-2.876-0.314-4.277c0.665,0.553,1.317,1.079,1.947,1.55c0,0.006-0.018,0.018-0.005,0.022  C90.479,57.125,97.519,58.873,96.127,56.307z M38.309,36.864c3.293,0,5.968,2.675,5.968,5.963c0,3.29-2.674,5.965-5.968,5.965  c-3.282,0-5.957-2.675-5.957-5.965C32.353,39.539,35.027,36.864,38.309,36.864z M49.918,72.329c-8.362,0-15.295-6.162-16.541-14.187  h33.087C65.216,66.161,58.286,72.329,49.918,72.329z M61.522,48.792c-3.288,0-5.962-2.675-5.962-5.965  c0-3.288,2.674-5.963,5.962-5.963c3.293,0,5.968,2.675,5.968,5.963C67.49,46.116,64.815,48.792,61.522,48.792z"></path></svg>