<svg xmlns="http://www.w3.org/2000/svg" xmlns:xlink="http://www.w3.org/1999/xlink" version="1.1" x="0px" y="0px" viewBox="0 0 100 100" enable-background="new 0 0 100 100" xml:space="preserve"><g><circle fill="none" cx="46.857" cy="38.345" r="0.684"></circle><circle fill="none" cx="48.035" cy="49.231" r="0.684"></circle><circle fill="none" cx="37.711" cy="43.66" r="0.684"></circle><circle fill="none" cx="43.829" cy="17.522" r="0.684"></circle><path fill="none" d="M43.829,11.394c-7.406,0-13.431,9.582-13.431,21.358c0,6.398,4.051,15.916,7.511,22.876h11.841   c3.459-6.96,7.511-16.476,7.511-22.876C57.26,20.976,51.234,11.394,43.829,11.394z M34.86,28.556c0-0.923,0.751-1.673,1.673-1.673   c0.923,0,1.673,0.751,1.673,1.673s-0.75,1.673-1.673,1.673C35.611,30.229,34.86,29.479,34.86,28.556z M37.711,45.333   c-0.922,0-1.673-0.751-1.673-1.673c0-0.922,0.751-1.672,1.673-1.672c0.923,0,1.673,0.751,1.673,1.672   C39.384,44.582,38.634,45.333,37.711,45.333z M43.829,19.196c-0.923,0-1.673-0.751-1.673-1.673s0.751-1.673,1.673-1.673   c0.923,0,1.673,0.751,1.673,1.673S44.751,19.196,43.829,19.196z M45.184,38.345c0-0.923,0.75-1.673,1.673-1.673   c0.923,0,1.673,0.751,1.673,1.673c0,0.923-0.751,1.673-1.673,1.673C45.934,40.018,45.184,39.267,45.184,38.345z M48.035,50.904   c-0.923,0-1.673-0.751-1.673-1.673c0-0.923,0.751-1.673,1.673-1.673c0.923,0,1.673,0.751,1.673,1.673   C49.708,50.153,48.958,50.904,48.035,50.904z M52.178,25.021c0,0.923-0.751,1.673-1.673,1.673c-0.923,0-1.673-0.751-1.673-1.673   c0-0.922,0.751-1.672,1.673-1.672C51.427,23.348,52.178,24.099,52.178,25.021z"></path><circle fill="none" cx="50.505" cy="25.021" r="0.684"></circle><path fill="none" d="M27.272,57.398v8.082c0,0.431,0.35,0.781,0.781,0.781h31.61c0.43,0,0.781-0.35,0.781-0.781v-8.082   c0-0.431-0.35-0.781-0.781-0.781h-31.61C27.622,56.618,27.272,56.967,27.272,57.398z"></path><circle fill="none" cx="20.612" cy="27.378" r="0.684"></circle><circle fill="none" cx="62.711" cy="25.021" r="0.684"></circle><path fill="none" d="M29.684,28.402c-1.175-1.582-2.258-2.716-3.218-3.355c-1.898-1.263-3.988-1.979-5.885-2.016   c-1.824-0.043-3.222,0.558-3.963,1.672c-1.578,2.372,0.272,6.387,4.124,8.95c1.642,1.091,4.746,1.955,8.976,2.514   c-0.194-1.201-0.311-2.351-0.311-3.415C29.408,31.264,29.504,29.81,29.684,28.402z M20.612,29.051   c-0.923,0-1.673-0.751-1.673-1.673c0-0.923,0.751-1.673,1.673-1.673s1.673,0.751,1.673,1.673   C22.286,28.3,21.535,29.051,20.612,29.051z"></path><polygon fill="none" points="31.809,94.011 55.906,94.011 57.874,67.25 29.842,67.25  "></polygon><circle fill="none" cx="36.533" cy="28.556" r="0.684"></circle><path fill="none" d="M79.953,15.104c0.68-3.068,0.141-5.67-1.518-7.329c-3.487-3.486-10.864-1.782-16.444,3.798   c-1.876,1.876-3.787,5.245-5.682,10.003c1.171,3.129,1.866,6.735,1.931,10.581c2.627-0.829,5.051-1.694,7.196-2.579   c4.341-1.791,7.436-3.595,9.201-5.359C77.367,21.488,79.256,18.251,79.953,15.104z M62.711,26.694   c-0.923,0-1.673-0.751-1.673-1.673c0-0.922,0.751-1.672,1.673-1.672s1.673,0.751,1.673,1.672   C64.384,25.943,63.634,26.694,62.711,26.694z M68.282,15.693c-0.923,0-1.673-0.751-1.673-1.673c0-0.922,0.751-1.672,1.673-1.672   c0.922,0,1.673,0.751,1.673,1.672C69.954,14.942,69.204,15.693,68.282,15.693z M71.964,16.344c0-0.923,0.751-1.673,1.673-1.673   c0.923,0,1.673,0.751,1.673,1.673c0,0.923-0.75,1.673-1.673,1.673C72.715,18.017,71.964,17.266,71.964,16.344z"></path><circle fill="none" cx="79.553" cy="37.166" r="0.684"></circle><path fill="none" d="M80.632,30.112c-1.227-1.227-3.644-2.527-6.986-3.767c-1.223,0.898-2.757,1.796-4.585,2.69   c1.39,4.081,2.86,6.982,4.262,8.385c3.272,3.272,7.573,4.296,9.587,2.279c1.26-1.261,1.359-3.554,0.258-5.985   C82.593,32.442,81.716,31.196,80.632,30.112z M73.638,31.407c-0.923,0-1.673-0.751-1.673-1.672c0-0.923,0.751-1.673,1.673-1.673   c0.923,0,1.673,0.751,1.673,1.673C75.31,30.656,74.56,31.407,73.638,31.407z M79.553,38.839c-0.922,0-1.673-0.751-1.673-1.673   c0-0.923,0.751-1.673,1.673-1.673c0.923,0,1.673,0.751,1.673,1.673C81.226,38.089,80.475,38.839,79.553,38.839z"></path><circle fill="none" cx="73.637" cy="29.734" r="0.684"></circle><circle fill="none" cx="73.637" cy="16.344" r="0.684"></circle><circle fill="none" cx="68.281" cy="14.02" r="0.684"></circle><path d="M84.07,33.306c-0.625-1.379-1.571-2.725-2.739-3.893c-1.272-1.272-3.558-2.542-6.777-3.78   c0.282-0.238,0.543-0.476,0.781-0.714c2.863-2.862,4.845-6.272,5.583-9.601c0.755-3.409,0.121-6.336-1.785-8.242   c-3.872-3.872-11.877-2.168-17.843,3.798c-1.84,1.84-3.691,5.005-5.511,9.387c-2.594-5.942-6.984-9.856-11.952-9.856   c-6.68,0-12.311,7.076-13.943,16.644c-1.021-1.276-1.987-2.236-2.872-2.824c-2.053-1.366-4.331-2.142-6.413-2.182   c-2.179-0.043-3.872,0.709-4.806,2.113c-1.88,2.827,0.094,7.458,4.4,10.322c2.263,1.505,6.453,2.301,9.706,2.714   c1.157,5.889,4.177,12.904,6.904,18.438h-8.752c-0.976,0-1.77,0.794-1.77,1.77v8.082c0,0.976,0.794,1.77,1.77,1.77h0.798   l2.007,27.293C30.876,94.8,31.091,95,31.35,95h25.015c0.259,0,0.474-0.2,0.493-0.458l2.007-27.293h0.797   c0.976,0,1.77-0.794,1.77-1.77v-8.082c0-0.976-0.794-1.77-1.77-1.77h-8.811c3.38-6.857,7.21-15.991,7.381-22.43   c2.773-0.866,5.326-1.775,7.58-2.706c0.832-0.343,1.605-0.688,2.349-1.033c1.446,4.221,2.946,7.143,4.463,8.661   c2.318,2.318,5.147,3.578,7.519,3.578c1.37,0,2.588-0.42,3.467-1.299C85.169,38.84,85.346,36.122,84.07,33.306z M20.743,33.654   c-3.852-2.563-5.702-6.579-4.124-8.95c0.74-1.114,2.138-1.715,3.963-1.672c1.897,0.037,3.987,0.753,5.885,2.016   c0.96,0.638,2.043,1.773,3.218,3.355c-0.18,1.408-0.276,2.862-0.276,4.35c0,1.064,0.117,2.214,0.311,3.415   C25.489,35.609,22.385,34.745,20.743,33.654z M55.906,94.011H31.809L29.842,67.25h28.032L55.906,94.011z M60.443,57.398v8.082   c0,0.431-0.35,0.781-0.781,0.781h-31.61c-0.43,0-0.781-0.35-0.781-0.781v-8.082c0-0.431,0.35-0.781,0.781-0.781h31.61   C60.093,56.618,60.443,56.967,60.443,57.398z M49.749,55.628H37.908c-3.459-6.961-7.511-16.478-7.511-22.876   c0-11.777,6.025-21.358,13.431-21.358S57.26,20.976,57.26,32.752C57.26,39.153,53.208,48.668,49.749,55.628z M65.435,29.578   c-2.145,0.885-4.569,1.751-7.196,2.579c-0.065-3.847-0.76-7.452-1.931-10.581c1.895-4.758,3.806-8.128,5.682-10.003   c5.581-5.581,12.957-7.285,16.444-3.798c1.659,1.659,2.198,4.261,1.518,7.329c-0.697,3.147-2.586,6.384-5.316,9.115   C72.872,25.984,69.776,27.787,65.435,29.578z M82.911,39.699c-2.014,2.017-6.315,0.993-9.587-2.279   c-1.402-1.403-2.872-4.304-4.262-8.385c1.828-0.894,3.361-1.792,4.585-2.69c3.342,1.24,5.759,2.54,6.986,3.767   c1.084,1.084,1.961,2.33,2.537,3.601C84.27,36.145,84.171,38.438,82.911,39.699z"></path><path d="M37.711,41.987c-0.922,0-1.673,0.751-1.673,1.672c0,0.923,0.751,1.673,1.673,1.673c0.923,0,1.673-0.751,1.673-1.673   C39.384,42.738,38.634,41.987,37.711,41.987z M37.711,44.344c-0.377,0-0.683-0.307-0.683-0.684s0.307-0.683,0.683-0.683   c0.377,0,0.684,0.306,0.684,0.683S38.089,44.344,37.711,44.344z"></path><path d="M20.612,25.704c-0.923,0-1.673,0.751-1.673,1.673c0,0.923,0.751,1.673,1.673,1.673s1.673-0.751,1.673-1.673   C22.286,26.455,21.535,25.704,20.612,25.704z M20.612,28.062c-0.377,0-0.684-0.307-0.684-0.684c0-0.377,0.307-0.684,0.684-0.684   s0.684,0.307,0.684,0.684C21.296,27.754,20.99,28.062,20.612,28.062z"></path><path d="M48.53,38.345c0-0.923-0.751-1.673-1.673-1.673c-0.923,0-1.673,0.751-1.673,1.673c0,0.923,0.75,1.673,1.673,1.673   C47.779,40.018,48.53,39.267,48.53,38.345z M46.174,38.345c0-0.377,0.307-0.684,0.683-0.684c0.377,0,0.684,0.307,0.684,0.684   c0,0.377-0.307,0.684-0.684,0.684C46.48,39.029,46.174,38.721,46.174,38.345z"></path><path d="M75.31,16.344c0-0.923-0.75-1.673-1.673-1.673c-0.923,0-1.673,0.751-1.673,1.673c0,0.923,0.751,1.673,1.673,1.673   C74.56,18.017,75.31,17.266,75.31,16.344z M73.638,17.028c-0.377,0-0.684-0.307-0.684-0.684c0-0.377,0.307-0.684,0.684-0.684   c0.377,0,0.683,0.307,0.683,0.684C74.321,16.721,74.014,17.028,73.638,17.028z"></path><path d="M68.282,12.347c-0.923,0-1.673,0.751-1.673,1.672c0,0.923,0.751,1.673,1.673,1.673c0.922,0,1.673-0.751,1.673-1.673   C69.954,13.098,69.204,12.347,68.282,12.347z M68.282,14.704c-0.377,0-0.684-0.307-0.684-0.684s0.307-0.683,0.684-0.683   c0.377,0,0.683,0.306,0.683,0.683S68.658,14.704,68.282,14.704z"></path><path d="M43.829,15.849c-0.923,0-1.673,0.751-1.673,1.673s0.751,1.673,1.673,1.673c0.923,0,1.673-0.751,1.673-1.673   S44.751,15.849,43.829,15.849z M43.829,18.206c-0.377,0-0.684-0.307-0.684-0.684c0-0.377,0.307-0.684,0.684-0.684   c0.377,0,0.684,0.307,0.684,0.684C44.512,17.899,44.206,18.206,43.829,18.206z"></path><path d="M73.638,28.062c-0.923,0-1.673,0.751-1.673,1.673c0,0.922,0.751,1.672,1.673,1.672c0.923,0,1.673-0.751,1.673-1.672   C75.31,28.812,74.56,28.062,73.638,28.062z M73.638,30.418c-0.377,0-0.684-0.306-0.684-0.683s0.307-0.684,0.684-0.684   c0.377,0,0.683,0.307,0.683,0.684S74.014,30.418,73.638,30.418z"></path><path d="M62.711,23.348c-0.923,0-1.673,0.751-1.673,1.672c0,0.923,0.751,1.673,1.673,1.673s1.673-0.751,1.673-1.673   C64.384,24.099,63.634,23.348,62.711,23.348z M62.711,25.704c-0.377,0-0.684-0.307-0.684-0.684c0-0.377,0.307-0.683,0.684-0.683   s0.684,0.306,0.684,0.683C63.395,25.397,63.088,25.704,62.711,25.704z"></path><path d="M38.206,28.556c0-0.923-0.75-1.673-1.673-1.673c-0.923,0-1.673,0.751-1.673,1.673s0.751,1.673,1.673,1.673   C37.456,30.229,38.206,29.479,38.206,28.556z M35.849,28.556c0-0.377,0.307-0.684,0.684-0.684c0.377,0,0.683,0.307,0.683,0.684   s-0.307,0.684-0.683,0.684C36.156,29.24,35.849,28.933,35.849,28.556z"></path><path d="M79.553,35.493c-0.922,0-1.673,0.751-1.673,1.673c0,0.923,0.751,1.673,1.673,1.673c0.923,0,1.673-0.751,1.673-1.673   C81.226,36.244,80.475,35.493,79.553,35.493z M79.553,37.85c-0.377,0-0.683-0.307-0.683-0.684c0-0.377,0.307-0.684,0.683-0.684   c0.377,0,0.684,0.307,0.684,0.684C80.237,37.543,79.93,37.85,79.553,37.85z"></path><path d="M48.831,25.021c0,0.923,0.751,1.673,1.673,1.673c0.923,0,1.673-0.751,1.673-1.673c0-0.922-0.751-1.672-1.673-1.672   C49.582,23.348,48.831,24.099,48.831,25.021z M51.189,25.021c0,0.377-0.307,0.684-0.684,0.684c-0.377,0-0.684-0.307-0.684-0.684   c0-0.377,0.307-0.683,0.684-0.683C50.882,24.338,51.189,24.644,51.189,25.021z"></path><path d="M48.035,47.557c-0.923,0-1.673,0.751-1.673,1.673c0,0.923,0.751,1.673,1.673,1.673c0.923,0,1.673-0.751,1.673-1.673   C49.708,48.308,48.958,47.557,48.035,47.557z M48.035,49.915c-0.377,0-0.684-0.307-0.684-0.684s0.307-0.684,0.684-0.684   c0.377,0,0.683,0.307,0.683,0.684S48.412,49.915,48.035,49.915z"></path></g></svg>