<svg xmlns="http://www.w3.org/2000/svg" xmlns:xlink="http://www.w3.org/1999/xlink" version="1.1" x="0px" y="0px" viewBox="0 0 100 100" enable-background="new 0 0 100 100" xml:space="preserve"><path d="M93.299,38.922c-0.25-3.625-2-19.875-25.25-20.219s-23.5,14.844-25.694,15.984s-2.036,1.484-2.036,1.484v11.375l-6.27,3.125  l-13.5-22.25c0,0,0.316-3.442,1.042-5.833c0.285-0.937,1.207-0.84,1.333-1.625c0.137-0.851-0.412-1.491-0.5-1.813  c-0.375-1.375-6.813-0.021-10.375,2.021c-1.153,0.661-5.425,4.712-5.5,6.5c-0.115,2.75,3.375,1.5,3.375,1.5l6,2.25l24.875,41.958  c0,0-2.154,3.903,1.826,5.557c3.937,1.635,10.563,0.938,17.063,1.125c9.531,0.275,18.763-0.215,20.486-0.89  c2.875-1.125,0.875-6.375,0.875-6.375s-0.469-0.781,4.375-7.375C94.518,53.043,93.549,42.547,93.299,38.922z M81.007,54.381  c-0.166-12.583,1-18.667-0.583-19.083c-2.417-0.917-23.583,0-23.583,0l-6.667-3.5c0,0-1.167-0.917,0-2.417s6.417-7.583,20.5-5.833  s18.584,11.667,18.667,16.75s-1.751,11.5-3.084,14.083S81.173,66.964,81.007,54.381z"></path></svg>