<svg xmlns="http://www.w3.org/2000/svg" xmlns:xlink="http://www.w3.org/1999/xlink" version="1.1" x="0px" y="0px" viewBox="0 0 90 90" enable-background="new 0 0 90 90" xml:space="preserve"><path d="M73.484,56.863l-16.884,0.999l-11.478-10.81l1.529-2.219c0.108-0.163,0.183-0.336,0.241-0.513  c1.246,0.254,2.108,0.185,2.424-0.289c0.311-0.467,0.053-1.274-0.641-2.304c1.135-8.839-2.899-17.715-10.321-22.655  c-5.245-3.492-11.535-4.732-17.71-3.49c-6.176,1.24-11.5,4.811-14.991,10.055C0.6,33.23,0.545,42.712,4.696,50.186l-2.244,3.49  c-0.656,0.986-0.389,2.316,0.596,2.972l22.56,15.017c0.986,0.655,2.317,0.389,2.972-0.597l2.917-4.234l42.617-5.913L73.484,56.863z   M18.969,23.832c-0.355,0.533,0.018,1.503,0.954,2.753c-0.087,0.091-0.17,0.187-0.242,0.295L6.839,46.854  c-2.682-6.099-2.317-13.391,1.64-19.336c2.988-4.49,7.546-7.547,12.833-8.608c5.287-1.061,10.672,0,15.162,2.988  c5.567,3.706,8.836,9.739,8.996,16.258c-2.348-2.205-5.585-4.748-9.322-7.235C27.768,25.342,20.077,22.168,18.969,23.832z   M36.873,59.029l7.122-10.339l9.91,9.331L36.873,59.029z"></path><path d="M87.28,57.161c-1.199-3.574-3.708-5.954-5.605-5.318c-0.296,0.099-0.555,0.272-0.784,0.497l-0.002-0.009l-6.005,4.29  c0.18,0.896,0.807,4.297,0.807,4.297l8.512,3.722l-0.016-0.058c0.63,0.306,1.256,0.392,1.827,0.2  C87.911,64.147,88.478,60.734,87.28,57.161z"></path></svg>