<svg xmlns="http://www.w3.org/2000/svg" xmlns:xlink="http://www.w3.org/1999/xlink" version="1.1" x="0px" y="0px" viewBox="0 0 33 100" enable-background="new 0 0 33 100" xml:space="preserve"><path d="M16.8,5.1c0,0,4.9,0.1,4.9,5.7c0,8.4-1.1,20.2-1.1,20.6l-0.3,12.5c0,0,0,1.2-0.6,1.2c-0.6,0-1.5,0-1.5,0s-0.1,4.4-0.3,5.4  c-0.1,1.1-0.4,4.1,0.1,4.6c0.5,0.5,1.4,0.3,2.4,0c1-0.3,2.8-1.1,4.3-0.9c1.5,0.1,3,0.6,3.1,0.7s0.2,0.3,0.2,0.7s-0.1,13.2-0.3,14.9  c-0.2,1.7-0.9,7.4-1.5,9.6s-2.8,10.6-5,12.9c-2.3,2.2-4.3,2-4.3,2s-2,0.2-4.3-2C10.2,90.7,8,82.3,7.4,80c-0.6-2.2-1.3-7.9-1.5-9.6  S5.6,55.9,5.6,55.5c0-0.4,0.2-0.7,0.2-0.8c0.1,0,1.6-0.5,3.1-0.7c1.5-0.1,3.3,0.5,4.3,0.9c1,0.3,1.9,0.3,2.4-0.2  c0.5-0.5,0.3-3.3,0.1-4.3c-0.1-1.1-0.3-5.4-0.3-5.4s-0.9,0-1.5,0c-0.6,0-0.6-1.2-0.6-1.2L13,31.7c0-0.4-1.1-12.3-1.1-20.7  C11.9,5.3,16.8,5.1,16.8,5.1z"></path></svg>