<svg xmlns="http://www.w3.org/2000/svg" xmlns:xlink="http://www.w3.org/1999/xlink" version="1.1" x="0px" y="0px" viewBox="0 0 90 90"><desc iVinci="yes" version="4.4" gridStep="20" showGrid="no" snapToGrid="no" codePlatform="0"></desc><g><g><desc type="0" basicInfo-basicType="0" basicInfo-roundedRectRadius="12" basicInfo-polygonSides="6" basicInfo-starPoints="5" bounding="rect(-42.8896,-44.9999,85.7792,89.9998)" text="" font-familyName="" font-pixelSize="20" font-bold="0" font-underline="0" font-alignment="1" strokeStyle="0" markerStart="0" markerEnd="0" shadowEnabled="0" shadowOffsetX="0" shadowOffsetY="2" shadowBlur="4" shadowOpacity="160" blurEnabled="0" blurRadius="4" transform="matrix(1.04921,0,0,1,45.0001,45.0001)" pers-center="0,0" pers-size="0,0" pers-start="0,0" pers-end="0,0" locked="0" mesh="" flag=""></desc><path d="M21.9936,67.645 C21.7733,67.549 21.9265,67.88 22.0828,67.906 C22.2391,67.933 22.214,67.741 21.9936,67.645 M26.3363,69.945 C26.6164,70.136 26.9354,70.385 27.0707,70.523 C27.2071,70.662 27.1368,70.77 26.9889,70.845 C26.842,70.92 26.4129,71.159 26.245,70.825 C26.245,70.825 25.4308,69.326 26.3363,69.945 M23.5118,70.253 C23.3849,70.073 23.3681,68.927 23.5779,69.012 C24.5044,69.384 24.0081,69.264 23.9829,70.514 C23.9777,70.75 23.6398,70.433 23.5118,70.253 M22.791,69.492 C22.7407,69.364 22.6148,68.611 22.7186,68.568 C22.8235,68.524 23.2285,68.776 23.3198,68.91 C23.4122,69.044 23.2222,69.516 23.3545,70.071 C23.4646,70.506 22.8414,69.619 22.791,69.492 M24.2809,69.284 C24.3984,69.13 24.9944,69.449 24.9797,69.566 C24.8947,70.241 24.8863,70.603 25.0164,70.857 C25.1454,71.11 24.4551,70.855 24.1896,70.722 C23.9231,70.59 24.1456,69.463 24.2809,69.284 M25.3217,69.542 C25.8652,69.837 25.8337,70.042 26.0268,70.82 C26.1055,71.137 25.5378,71.151 25.1654,70.871 C24.9304,70.694 24.9272,69.328 25.3217,69.542 M22.5864,69.199 C22.6315,69.476 22.0356,68.146 22.0744,68.026 C22.1185,67.889 22.4721,68.197 22.5591,68.404 C22.6672,68.659 22.5172,68.763 22.5864,69.199 M22.7417,68.408 C22.6357,68.31 22.7417,68.408 22.7417,68.408 C22.7417,68.408 22.3336,68.089 22.2832,67.988 C22.2328,67.887 22.4123,67.809 22.6095,67.792 C22.8057,67.774 23.4195,67.682 23.3712,67.819 C23.324,67.955 22.8466,68.507 22.7417,68.408 M26.8189,70.044 C26.7413,69.875 27.0854,69.531 27.2869,69.564 C27.4883,69.597 27.7212,70.586 27.7076,70.697 C27.695,70.808 26.8966,70.214 26.8189,70.044 M22.9746,68.528 C22.9935,68.401 23.4436,67.966 23.6126,67.884 C23.9242,67.732 24.3134,67.726 24.2484,67.89 C24.0648,68.347 23.8234,68.397 23.7353,68.913 C23.7143,69.034 22.9547,68.656 22.9746,68.528 M25.7687,69.669 C25.5399,69.7 25.7236,68.998 26.6049,68.643 C26.8,68.564 27.5586,69.244 26.6301,69.915 C26.501,70.008 26.1244,69.62 25.7687,69.669 M24.4414,67.919 C24.5925,67.782 25.6008,67.872 25.3563,68.222 C25.05,68.659 24.7782,69.19 24.5065,69.143 C24.2799,69.104 23.9263,69.072 23.8874,68.919 C23.8381,68.726 24.1529,68.182 24.4414,67.919 M25.5998,68.117 C25.691,67.924 26.3625,68.366 26.351,68.48 C26.3405,68.594 25.8411,68.9 25.6218,69.379 C25.4885,69.67 25.5158,69.35 24.817,69.257 C24.6576,69.236 25.4182,68.499 25.5998,68.117 M27.3561,70.814 C27.1096,70.817 27.205,70.58 27.3142,70.628 C27.4243,70.677 27.6016,70.81 27.3561,70.814 M6.29225,46.135 C6.23769,46.391 6.02889,46.464 6.02155,46.292 C6.01315,46.121 6.34785,45.879 6.29225,46.135 M4.74466,51.277 C4.59673,51.618 4.39423,52.015 4.27147,52.192 C4.14766,52.369 4.01022,52.32 3.89061,52.183 C3.77205,52.045 3.40273,51.649 3.73743,51.392 C3.73743,51.392 5.22415,50.171 4.74466,51.277 M3.73008,48.366 C3.9011,48.188 5.18113,47.895 5.13707,48.138 C4.93877,49.205 4.9566,48.653 3.54962,48.925 C3.28417,48.977 3.55906,48.544 3.73008,48.366 M4.41207,47.421 C4.54322,47.337 5.3574,47.023 5.43084,47.123 C5.50429,47.223 5.31858,47.711 5.19057,47.84 C5.06153,47.969 4.48761,47.883 3.89691,48.156 C3.43525,48.376 4.28197,47.504 4.41207,47.421 M4.99857,48.946 C5.19897,49.032 4.98283,49.739 4.84853,49.752 C4.07108,49.824 3.66398,49.902 3.41112,50.1 C3.15721,50.298 3.27997,49.507 3.36496,49.194 C3.44994,48.881 4.76565,48.845 4.99857,48.946 M4.9566,50.108 C4.75516,50.753 4.51699,50.768 3.69126,51.159 C3.35447,51.318 3.20443,50.722 3.43001,50.261 C3.5727,49.971 5.10244,49.639 4.9566,50.108 M4.6922,47.135 C4.39213,47.248 5.74141,46.299 5.88515,46.312 C6.04883,46.325 5.78757,46.773 5.57668,46.915 C5.31648,47.09 5.16435,46.957 4.6922,47.135 M5.61446,47.108 C5.70049,46.973 5.61446,47.108 5.61446,47.108 C5.61446,47.108 5.87571,46.601 5.97643,46.523 C6.07821,46.445 6.20831,46.617 6.27441,46.821 C6.34051,47.024 6.58917,47.65 6.42445,47.633 C6.26077,47.615 5.52947,47.244 5.61446,47.108 M4.74781,51.811 C4.91988,51.688 5.38678,51.969 5.39727,52.19 C5.40776,52.41 4.35436,52.894 4.22741,52.907 C4.10045,52.92 4.57679,51.934 4.74781,51.811 M5.53577,47.383 C5.68266,47.373 6.2765,47.744 6.40871,47.903 C6.65317,48.196 6.7518,48.606 6.55245,48.576 C5.99742,48.492 5.88411,48.249 5.285,48.28 C5.14441,48.287 5.38783,47.393 5.53577,47.383 M4.91988,50.61 C4.8307,50.376 5.66167,50.402 6.26811,51.248 C6.40241,51.436 5.8201,52.4 4.84853,51.58 C4.71319,51.466 5.05838,50.975 4.91988,50.61 M6.56609,48.788 C6.75599,48.914 6.89449,50.002 6.44333,49.827 C5.88095,49.609 5.22205,49.448 5.21051,49.15 C5.20002,48.901 5.15176,48.52 5.31438,48.442 C5.51898,48.344 6.20306,48.546 6.56609,48.788 M6.61959,50.059 C6.85672,50.109 6.52097,50.925 6.38982,50.941 C6.25972,50.956 5.79807,50.502 5.20947,50.385 C4.85168,50.314 5.21681,50.267 5.15596,49.506 C5.14231,49.332 6.14746,49.959 6.61959,50.059 M4.01337,52.562 C3.95146,52.304 4.24,52.347 4.21167,52.475 C4.18334,52.602 4.07527,52.821 4.01337,52.562 M6.11073,42.832 C5.8925,42.932 5.72672,42.827 5.84843,42.729 C5.97119,42.631 6.32897,42.733 6.11073,42.832 M1.48583,44.524 C1.15428,44.606 0.75243,44.678 0.55518,44.688 C0.358978,44.697 0.321209,44.576 0.357929,44.419 C0.395702,44.263 0.489082,43.794 0.859451,43.888 C0.859451,43.888 2.55812,44.262 1.48583,44.524 M3.08692,42.256 C3.31145,42.279 4.21481,43.009 4.01232,43.108 C3.11734,43.545 3.53493,43.26 2.577,42.431 C2.39654,42.275 2.86344,42.233 3.08692,42.256 M4.15081,42.221 C4.28301,42.267 4.95241,42.662 4.91883,42.766 C4.88421,42.871 4.42466,43.005 4.25993,42.985 C4.0952,42.965 3.85074,42.521 3.33138,42.258 C2.92114,42.057 4.01966,42.175 4.15081,42.221 M3.34082,43.447 C3.3849,43.632 2.74697,43.863 2.66619,43.776 C2.19509,43.276 1.9181,43.036 1.63586,42.967 C1.35363,42.897 2.00309,42.557 2.28008,42.448 C2.55707,42.338 3.29047,43.231 3.34082,43.447 M2.46159,44.042 C1.87718,44.249 1.73869,44.093 1.00529,43.731 C0.707317,43.583 1.06614,43.158 1.5278,43.067 C1.81843,43.009 2.88547,43.892 2.46159,44.042 M4.51279,42.261 C4.26728,42.113 5.69315,42.539 5.76135,42.645 C5.83899,42.766 5.36894,42.826 5.15071,42.756 C4.88106,42.669 4.89785,42.492 4.51279,42.261 M5.02795,42.886 C5.17379,42.873 5.02795,42.886 5.02795,42.886 C5.02795,42.886 5.54311,42.794 5.65433,42.822 C5.76659,42.85 5.70994,43.033 5.59557,43.188 C5.48016,43.344 5.15176,43.853 5.07726,43.729 C5.00172,43.606 4.88211,42.899 5.02795,42.886 M1.09343,44.814 C1.27599,44.866 1.32005,45.341 1.16267,45.467 C1.00529,45.593 0.0819893,45.123 0.00434875,45.042 C-0.0732918,44.961 0.910862,44.761 1.09343,44.814 M4.78244,42.979 C4.86952,43.076 4.91569,43.687 4.86952,43.864 C4.78453,44.19 4.53482,44.479 4.44984,44.325 C4.21272,43.895 4.33128,43.686 3.98714,43.287 C3.90635,43.194 4.6964,42.882 4.78244,42.979 M2.07129,44.287 C2.19614,44.099 2.62317,44.689 2.32519,45.565 C2.25909,45.759 1.23402,45.874 1.31691,44.759 C1.32845,44.604 1.87613,44.579 2.07129,44.287 M4.30085,44.449 C4.30924,44.648 3.58215,45.329 3.46778,44.922 C3.32719,44.415 3.09007,43.872 3.3041,43.703 C3.48247,43.563 3.73848,43.324 3.88222,43.395 C4.06478,43.484 4.28406,44.067 4.30085,44.449 M3.39119,45.169 C3.48247,45.36 2.69976,45.566 2.61792,45.484 C2.53608,45.402 2.62317,44.838 2.39339,44.367 C2.2528,44.081 2.48467,44.309 3.01242,43.857 C3.13413,43.754 3.21177,44.789 3.39119,45.169 M0.143894,44.708 C0.301273,44.526 0.42403,44.75 0.314911,44.799 C0.205795,44.847 -0.0145378,44.89 0.143894,44.708 M6.35729,17.908 C6.36464,17.661 6.18943,17.55 6.14431,17.706 C6.09814,17.862 6.351,18.154 6.35729,17.908 M6.09709,12.866 C6.03834,12.521 5.94076,12.115 5.86836,11.926 C5.79492,11.738 5.65747,11.754 5.51793,11.855 C5.37733,11.955 4.94926,12.24 5.19897,12.547 C5.19897,12.547 6.28595,13.981 6.09709,12.866 M4.51069,15.32 C4.62715,15.52 5.73512,16.059 5.74876,15.827 C5.80751,14.806 5.69944,15.317 4.47082,14.769 C4.23895,14.666 4.39318,15.12 4.51069,15.32 M4.92303,16.331 C5.0248,16.435 5.70049,16.895 5.78968,16.819 C5.87991,16.744 5.81905,16.256 5.73092,16.111 C5.64174,15.965 5.09615,15.923 4.61562,15.548 C4.24314,15.248 4.82231,16.227 4.92303,16.331 M5.80436,15.057 C6.00791,15.02 5.96804,14.326 5.84843,14.286 C5.15176,14.055 4.79607,13.897 4.60826,13.662 C4.41941,13.427 4.35436,14.179 4.36171,14.484 C4.3701,14.789 5.56724,15.099 5.80436,15.057 M6.02679,13.983 C5.98693,13.348 5.77288,13.284 5.10349,12.751 C4.8307,12.533 4.55896,13.049 4.66178,13.518 C4.72683,13.815 6.05617,14.443 6.02679,13.983 M5.11504,16.652 C4.86533,16.485 5.88935,17.64 6.02365,17.66 C6.17683,17.682 6.03834,17.216 5.87676,17.041 C5.67741,16.826 5.50849,16.916 5.11504,16.652 M5.95545,16.872 C6.00371,17.014 5.95545,16.872 5.95545,16.872 C5.95545,16.872 6.0803,17.393 6.15585,17.485 C6.23034,17.578 6.38877,17.448 6.49474,17.275 C6.60176,17.102 6.97108,16.581 6.8158,16.562 C6.66156,16.544 5.90719,16.73 5.95545,16.872 M6.21985,12.377 C6.3489,12.526 6.84098,12.367 6.89973,12.167 C6.95954,11.967 6.10234,11.3 5.98903,11.262 C5.87571,11.223 6.08975,12.228 6.21985,12.377 M5.94496,16.603 C6.07716,16.643 6.70563,16.429 6.86301,16.312 C7.1526,16.094 7.33516,15.739 7.14525,15.724 C6.6175,15.684 6.45907,15.883 5.91663,15.728 C5.78968,15.692 5.81171,16.562 5.94496,16.603 M6.10653,13.514 C5.97224,13.71 6.73921,13.862 7.48624,13.214 C7.65202,13.071 7.33516,12.063 6.25972,12.61 C6.10968,12.686 6.31638,13.209 6.10653,13.514 M7.2061,15.533 C7.4086,15.458 7.78002,14.49 7.32781,14.555 C6.76229,14.635 6.12227,14.643 6.04359,14.914 C5.97958,15.14 5.84843,15.48 5.98063,15.585 C6.14536,15.719 6.81895,15.678 7.2061,15.533 M7.5408,14.379 C7.76953,14.383 7.64572,13.564 7.52926,13.522 C7.4128,13.48 6.88819,13.799 6.32162,13.782 C5.97748,13.771 6.30169,13.892 6.07506,14.576 C6.0226,14.733 7.08649,14.37 7.5408,14.379 M5.71518,11.532 C5.59977,11.756 5.87466,11.778 5.87676,11.655 C5.87991,11.532 5.83059,11.308 5.71518,11.532 M33.8161,1.519 C34.0343,1.537 34.1413,1.397 34.006,1.351 C33.8707,1.305 33.5979,1.501 33.8161,1.519 M38.2994,1.555 C38.6078,1.523 38.974,1.463 39.144,1.411 C39.315,1.36 39.3076,1.245 39.2258,1.123 C39.1429,1.001 38.9121,0.630001 38.6278,0.823002 C38.6278,0.823002 37.3016,1.657 38.2994,1.555 M36.203,0.110001 C36.0205,0.196999 35.4875,1.093 35.6921,1.116 C36.5944,1.217 36.1464,1.101 36.6941,0.104 C36.7979,-0.0830002 36.3867,0.0229988 36.203,0.110001 M35.2871,0.403 C35.1895,0.481998 34.7467,1.022 34.8097,1.101 C34.8726,1.179 35.3081,1.153 35.4413,1.087 C35.5746,1.02 35.6396,0.567001 35.9963,0.186001 C36.2807,-0.109001 35.3836,0.324001 35.2871,0.403 M36.372,1.201 C36.395,1.372 37.012,1.374 37.0529,1.276 C37.2921,0.708 37.4505,0.418999 37.6688,0.273998 C37.886,0.130001 37.2239,0.0369987 36.9522,0.0279999 C36.6815,0.019001 36.3457,1.002 36.372,1.201 M37.3131,1.441 C37.8776,1.439 37.9458,1.264 38.4515,0.733002 C38.6582,0.516998 38.2154,0.264 37.7936,0.327 C37.5271,0.366001 36.9039,1.441 37.3131,1.441 M34.9923,0.547001 C35.1528,0.347 34.0773,1.142 34.0532,1.253 C34.0259,1.38 34.4456,1.288 34.6093,1.162 C34.8097,1.007 34.7383,0.861 34.9923,0.547001 M34.7551,1.236 C34.6271,1.269 34.7551,1.236 34.7551,1.236 C34.7551,1.236 34.2872,1.314 34.2011,1.372 C34.1151,1.429 34.2221,1.568 34.3701,1.665 C34.518,1.763 34.9618,2.096 34.986,1.968 C35.0101,1.84 34.8831,1.203 34.7551,1.236 M38.7274,1.682 C38.5889,1.782 38.7043,2.2 38.8796,2.259 C39.0537,2.319 39.6875,1.638 39.7273,1.546 C39.7672,1.453 38.8659,1.581 38.7274,1.682 M34.9944,1.24 C34.9513,1.349 35.1098,1.883 35.2063,2.02 C35.3847,2.272 35.69,2.442 35.7131,2.285 C35.775,1.847 35.606,1.705 35.7708,1.261 C35.8096,1.157 35.0363,1.131 34.9944,1.24 M37.7244,1.53 C37.5576,1.409 37.3844,2.04 37.9206,2.695 C38.0402,2.84 38.9499,2.627 38.5186,1.703 C38.4588,1.575 37.9846,1.72 37.7244,1.53 M35.8788,2.345 C35.9365,2.517 36.7759,2.875 36.7402,2.495 C36.6972,2.021 36.7224,1.486 36.4863,1.408 C36.2891,1.343 35.9953,1.217 35.8946,1.321 C35.7676,1.452 35.7697,2.015 35.8788,2.345 M36.8861,2.682 C36.8703,2.872 37.6037,2.81 37.6457,2.715 C37.6887,2.621 37.4327,2.167 37.4768,1.696 C37.503,1.41 37.3802,1.674 36.7843,1.45 C36.6479,1.399 36.9165,2.303 36.8861,2.682 M39.5017,1.304 C39.3087,1.196 39.2762,1.424 39.3842,1.433 C39.4933,1.441 39.6948,1.411 39.5017,1.304 M38.3623,7.642 C38.4714,7.641 38.5186,7.567 38.4483,7.55 C38.3791,7.533 38.2521,7.642 38.3623,7.642 M40.595,7.47 C40.7472,7.441 40.9266,7.396 41.0084,7.363 C41.0913,7.33 41.0829,7.273 41.0367,7.216 C40.9895,7.159 40.8584,6.984 40.7251,7.092 C40.7251,7.092 40.1029,7.563 40.595,7.47 M39.4871,6.84 C39.4,6.891 39.1744,7.359 39.2772,7.362 C39.7305,7.374 39.5028,7.335 39.7305,6.816 C39.7735,6.718 39.5741,6.788 39.4871,6.84 M39.0432,7.024 C38.9992,7.068 38.803,7.355 38.8376,7.392 C38.8722,7.428 39.0884,7.397 39.1513,7.358 C39.2143,7.319 39.2269,7.091 39.3874,6.886 C39.5154,6.727 39.0884,6.981 39.0432,7.024 M39.6193,7.375 C39.6381,7.46 39.9456,7.435 39.9623,7.384 C40.0557,7.091 40.1208,6.941 40.2236,6.86 C40.3254,6.778 39.9907,6.76 39.8564,6.767 C39.721,6.774 39.5983,7.278 39.6193,7.375 M40.0987,7.455 C40.3799,7.431 40.4051,7.341 40.6338,7.055 C40.7272,6.938 40.4953,6.832 40.2876,6.88 C40.1564,6.911 39.8952,7.473 40.0987,7.455 M38.9037,7.108 C38.975,7.002 38.4746,7.443 38.4683,7.5 C38.4599,7.564 38.6645,7.5 38.74,7.431 C38.8334,7.345 38.7914,7.275 38.9037,7.108 M38.8166,7.461 C38.7547,7.483 38.8166,7.461 38.8166,7.461 C38.8166,7.461 38.5868,7.52 38.547,7.552 C38.5071,7.585 38.5658,7.649 38.6445,7.691 C38.7222,7.734 38.9583,7.881 38.9646,7.816 C38.9708,7.751 38.8785,7.439 38.8166,7.461 M40.8133,7.515 C40.7493,7.571 40.8258,7.774 40.915,7.796 C41.0042,7.818 41.2896,7.453 41.3053,7.405 C41.3211,7.357 40.8783,7.46 40.8133,7.515 M38.9352,7.453 C38.9194,7.509 39.0223,7.768 39.0768,7.832 C39.1765,7.95 39.336,8.022 39.3402,7.943 C39.3517,7.722 39.2615,7.659 39.3234,7.431 C39.3381,7.377 38.952,7.397 38.9352,7.453 M40.3075,7.482 C40.2194,7.429 40.1617,7.75 40.4576,8.054 C40.5237,8.121 40.9664,7.976 40.7104,7.535 C40.6748,7.474 40.446,7.566 40.3075,7.482 M39.4262,7.966 C39.4619,8.049 39.8962,8.192 39.8616,8.004 C39.8186,7.77 39.8071,7.503 39.6854,7.474 C39.5846,7.449 39.4325,7.399 39.3874,7.455 C39.3307,7.526 39.357,7.806 39.4262,7.966 M39.9424,8.091 C39.9435,8.186 40.3044,8.124 40.3222,8.075 C40.339,8.026 40.1911,7.812 40.1921,7.575 C40.1921,7.432 40.1428,7.568 39.8364,7.482 C39.7661,7.463 39.9403,7.901 39.9424,8.091 M41.1815,7.294 C41.0808,7.249 41.0745,7.364 41.1291,7.364 C41.1836,7.363 41.2822,7.34 41.1815,7.294 M48.6078,8.097 C48.6907,7.954 48.6235,7.837 48.547,7.915 C48.4704,7.993 48.5249,8.24 48.6078,8.097 M50.061,5.054 C50.1365,4.834 50.2089,4.566 50.2257,4.433 C50.2425,4.3 50.1575,4.268 50.0431,4.286 C49.9277,4.303 49.5857,4.343 49.635,4.598 C49.635,4.598 49.8175,5.767 50.061,5.054 M48.3466,6.022 C48.3518,6.175 48.8313,6.823 48.9131,6.691 C49.273,6.108 49.0464,6.376 48.4987,5.686 C48.3948,5.556 48.3413,5.87 48.3466,6.022 M48.2668,6.74 C48.293,6.832 48.5438,7.305 48.6204,7.287 C48.698,7.269 48.8177,6.965 48.8114,6.853 C48.8061,6.741 48.4987,6.552 48.3361,6.188 C48.2112,5.9 48.2406,6.649 48.2668,6.74 M49.1912,6.255 C49.3223,6.294 49.5206,5.874 49.4619,5.815 C49.1261,5.471 48.9677,5.271 48.932,5.077 C48.8963,4.882 48.6183,5.304 48.5249,5.486 C48.4326,5.668 49.038,6.209 49.1912,6.255 M49.6644,5.69 C49.8427,5.305 49.7378,5.203 49.5143,4.689 C49.423,4.479 49.0988,4.701 49.0097,5.008 C48.953,5.202 49.5343,5.969 49.6644,5.69 M48.2773,6.987 C48.1839,6.814 48.4179,7.8 48.4913,7.852 C48.5742,7.91 48.6403,7.595 48.6015,7.444 C48.5533,7.257 48.4242,7.259 48.2773,6.987 M48.7012,7.367 C48.6844,7.465 48.7012,7.367 48.7012,7.367 C48.7012,7.367 48.6089,7.711 48.6235,7.788 C48.6382,7.865 48.7725,7.836 48.89,7.767 C49.0086,7.697 49.3916,7.501 49.3066,7.443 C49.2216,7.386 48.718,7.27 48.7012,7.367 M50.2897,4.803 C50.318,4.929 50.658,4.983 50.7566,4.883 C50.8552,4.783 50.5635,4.135 50.509,4.078 C50.4544,4.021 50.2603,4.677 50.2897,4.803 M48.7809,7.206 C48.846,7.27 49.2835,7.332 49.4136,7.31 C49.6528,7.269 49.8742,7.114 49.7672,7.049 C49.4692,6.867 49.3129,6.937 49.0432,6.683 C48.9803,6.624 48.7159,7.143 48.7809,7.206 M49.8606,5.438 C49.7189,5.513 50.1218,5.832 50.7671,5.675 C50.9108,5.64 51.0451,4.952 50.2383,4.952 C50.126,4.952 50.0809,5.321 49.8606,5.438 M49.8637,6.955 C50.0064,6.971 50.5331,6.513 50.2467,6.416 C49.8889,6.294 49.5101,6.107 49.3769,6.243 C49.2678,6.356 49.0821,6.517 49.1261,6.618 C49.1807,6.746 49.5899,6.924 49.8637,6.955 M50.4282,6.376 C50.5614,6.447 50.7492,5.928 50.6947,5.869 C50.6391,5.809 50.2288,5.84 49.9015,5.66 C49.7032,5.551 49.8553,5.719 49.5028,6.053 C49.423,6.13 50.1638,6.235 50.4282,6.376 M50.2614,4.155 C50.1229,4.253 50.2771,4.347 50.318,4.276 C50.3589,4.204 50.4009,4.058 50.2614,4.155 M66.7077,11.783 C66.5629,11.607 66.6185,11.44 66.7381,11.531 C66.8567,11.622 66.8525,11.958 66.7077,11.783 M64.0207,7.991 C63.8654,7.711 63.6996,7.368 63.6419,7.195 C63.5852,7.023 63.687,6.966 63.8391,6.971 C63.9913,6.975 64.4424,6.971 64.4477,7.317 C64.4477,7.317 64.5253,8.894 64.0207,7.991 M66.4884,8.992 C66.523,9.195 66.0792,10.133 65.9386,9.971 C65.3185,9.258 65.6816,9.576 66.203,8.572 C66.3006,8.383 66.4548,8.79 66.4884,8.992 M66.7832,9.93 C66.7738,10.056 66.5776,10.723 66.4737,10.712 C66.3698,10.701 66.1338,10.318 66.1117,10.168 C66.0886,10.019 66.4349,9.719 66.5461,9.21 C66.629,8.808 66.7927,9.805 66.7832,9.93 M65.4633,9.438 C65.3049,9.512 64.9366,8.988 64.9954,8.9 C65.3364,8.389 65.4875,8.099 65.4812,7.836 C65.4749,7.572 65.946,8.086 66.1138,8.311 C66.2817,8.537 65.648,9.353 65.4633,9.438 M64.7026,8.768 C64.369,8.287 64.4771,8.135 64.6282,7.418 C64.689,7.125 65.1653,7.366 65.3626,7.758 C65.4875,8.006 64.944,9.117 64.7026,8.768 M66.8357,10.259 C66.9102,10.014 66.8724,11.358 66.7927,11.438 C66.7014,11.529 66.5304,11.123 66.5409,10.916 C66.5534,10.661 66.7192,10.643 66.8357,10.259 M66.3919,10.832 C66.4401,10.959 66.3919,10.832 66.3919,10.832 C66.3919,10.832 66.6028,11.272 66.6049,11.376 C66.6059,11.48 66.4254,11.464 66.2555,11.391 C66.0844,11.318 65.5389,11.121 65.6333,11.031 C65.7277,10.941 66.3436,10.705 66.3919,10.832 M63.6597,7.696 C63.6566,7.868 63.2338,7.995 63.0806,7.879 C62.9263,7.762 63.1278,6.856 63.1834,6.772 C63.238,6.688 63.6629,7.524 63.6597,7.696 M66.246,10.631 C66.1789,10.726 65.6322,10.88 65.4591,10.872 C65.1402,10.857 64.8139,10.688 64.9345,10.585 C65.2692,10.295 65.4895,10.362 65.7686,9.981 C65.8337,9.893 66.3132,10.536 66.246,10.631 M64.3826,8.466 C64.5841,8.542 64.1518,9.031 63.2778,8.929 C63.0848,8.906 62.727,8.017 63.7657,7.885 C63.9094,7.866 64.0668,8.348 64.3826,8.466 M64.7845,10.475 C64.6051,10.52 63.8035,10 64.1466,9.824 C64.5746,9.605 65.0132,9.294 65.2199,9.453 C65.392,9.585 65.6732,9.768 65.6438,9.909 C65.6081,10.088 65.1297,10.39 64.7845,10.475 M63.9031,9.802 C63.75,9.918 63.3691,9.261 63.4237,9.173 C63.4782,9.086 64.0154,9.059 64.3889,8.767 C64.6156,8.59 64.4645,8.837 65.0069,9.223 C65.1318,9.311 64.2053,9.572 63.9031,9.802 M63.5223,6.834 C63.7269,6.94 63.5538,7.09 63.4814,7.002 C63.41,6.915 63.3166,6.727 63.5223,6.834 M84.8033,13.888 C84.9996,13.843 85.0531,13.691 84.9198,13.688 C84.7876,13.685 84.6061,13.932 84.8033,13.888 M88.7494,12.681 C89.0107,12.568 89.3139,12.415 89.4492,12.322 C89.5835,12.23 89.5437,12.131 89.4356,12.047 C89.3275,11.963 89.0149,11.701 88.8218,11.948 C88.8218,11.948 87.9038,13.047 88.7494,12.681 M86.4852,11.992 C86.3499,12.119 86.1453,13.053 86.331,13.016 C87.1525,12.856 86.7265,12.877 86.9144,11.851 C86.949,11.658 86.6195,11.865 86.4852,11.992 M85.7655,12.502 C85.7036,12.599 85.4738,13.195 85.5525,13.246 C85.6301,13.298 86.0047,13.155 86.1023,13.06 C86.1998,12.965 86.1243,12.549 86.3258,12.116 C86.4884,11.778 85.8284,12.406 85.7655,12.502 M86.9532,12.903 C87.0235,13.047 87.5659,12.879 87.5733,12.781 C87.6163,12.216 87.6708,11.919 87.8188,11.732 C87.9678,11.544 87.3592,11.646 87.1189,11.713 C86.8776,11.78 86.8724,12.735 86.9532,12.903 M87.8503,12.854 C88.3455,12.697 88.3528,12.524 88.6414,11.918 C88.7589,11.671 88.2962,11.572 87.9447,11.743 C87.7222,11.851 87.4904,12.968 87.8503,12.854 M85.5493,12.71 C85.6322,12.49 84.9209,13.485 84.9335,13.589 C84.946,13.708 85.2881,13.511 85.3941,13.356 C85.5252,13.164 85.4192,13.056 85.5493,12.71 M85.5441,13.38 C85.4413,13.444 85.5441,13.38 85.5441,13.38 C85.5441,13.38 85.1559,13.578 85.0982,13.652 C85.0394,13.727 85.1737,13.819 85.3322,13.863 C85.4906,13.908 85.9785,14.078 85.9627,13.959 C85.9459,13.84 85.6469,13.316 85.5441,13.38 M89.1618,12.675 C89.0705,12.801 89.295,13.136 89.465,13.14 C89.636,13.144 89.9927,12.372 90.0001,12.279 C90.0085,12.187 89.2541,12.549 89.1618,12.675 M85.755,13.318 C85.7497,13.425 86.0456,13.85 86.1705,13.944 C86.4013,14.116 86.7192,14.181 86.693,14.037 C86.6195,13.635 86.4296,13.557 86.4433,13.121 C86.4464,13.02 85.7602,13.211 85.755,13.318 M88.2374,12.819 C88.0559,12.758 88.0884,13.36 88.7526,13.787 C88.8995,13.881 89.6349,13.443 88.9855,12.751 C88.8953,12.655 88.5217,12.914 88.2374,12.819 M86.8566,14.043 C86.9574,14.179 87.7999,14.262 87.6572,13.938 C87.4799,13.533 87.3456,13.057 87.1148,13.053 C86.9228,13.05 86.6269,13.021 86.5692,13.14 C86.4968,13.29 86.6646,13.784 86.8566,14.043 M87.8398,14.061 C87.8817,14.233 88.5071,13.976 88.5165,13.881 C88.527,13.786 88.1682,13.458 88.0685,13.033 C88.0076,12.775 87.9772,13.04 87.3886,13.008 C87.2543,13.001 87.7548,13.721 87.8398,14.061 M89.7304,12.129 C89.53,12.088 89.5678,12.297 89.6664,12.275 C89.764,12.252 89.9319,12.17 89.7304,12.129 M84.3155,36.507 C84.3795,36.706 84.5925,36.736 84.5956,36.596 C84.5977,36.457 84.2525,36.309 84.3155,36.507 M86.0383,40.433 C86.1977,40.688 86.416,40.979 86.5461,41.104 C86.6762,41.229 86.8136,41.171 86.9301,41.044 C87.0466,40.916 87.4085,40.546 87.0612,40.385 C87.0612,40.385 85.52,39.609 86.0383,40.433 M86.9773,37.947 C86.7979,37.828 85.4937,37.771 85.5462,37.959 C85.7791,38.792 85.7445,38.349 87.1777,38.373 C87.4474,38.377 87.1557,38.067 86.9773,37.947 M86.2576,37.281 C86.1233,37.232 85.2891,37.093 85.2178,37.183 C85.1464,37.274 85.35,37.641 85.4832,37.727 C85.6175,37.813 86.1956,37.664 86.8021,37.801 C87.2753,37.915 86.3929,37.33 86.2576,37.281 M85.7109,38.591 C85.5105,38.689 85.7508,39.228 85.8872,39.219 C86.6762,39.169 87.0906,39.176 87.3529,39.3 C87.6163,39.424 87.4683,38.804 87.3718,38.563 C87.2763,38.323 85.9438,38.478 85.7109,38.591 M85.7886,39.521 C86.012,40.012 86.2534,39.992 87.1011,40.192 C87.4474,40.273 87.5806,39.772 87.3382,39.432 C87.1861,39.218 85.6259,39.164 85.7886,39.521 M85.9659,37.09 C86.2733,37.139 84.8779,36.563 84.7331,36.593 C84.5683,36.627 84.8453,36.951 85.0636,37.036 C85.3332,37.141 85.4832,37.012 85.9659,37.09 M85.031,37.197 C84.9408,37.1 85.031,37.197 85.031,37.197 C85.031,37.197 84.7519,36.824 84.647,36.776 C84.5421,36.727 84.4162,36.884 84.3553,37.057 C84.2934,37.231 84.0616,37.769 84.2273,37.732 C84.3931,37.695 85.1223,37.294 85.031,37.197 M86.0509,40.864 C85.8736,40.788 85.4098,41.08 85.4056,41.259 C85.4014,41.438 86.4821,41.681 86.6111,41.674 C86.7412,41.667 86.2282,40.939 86.0509,40.864 M85.1202,37.407 C84.9702,37.42 84.3805,37.801 84.2515,37.947 C84.0133,38.217 83.9262,38.562 84.1266,38.51 C84.6858,38.365 84.7939,38.153 85.4014,38.094 C85.543,38.081 85.2692,37.395 85.1202,37.407 M85.841,39.92 C85.9239,39.72 85.0845,39.856 84.4959,40.622 C84.3658,40.792 84.9838,41.488 85.9428,40.691 C86.076,40.581 85.712,40.234 85.841,39.92 M84.1193,38.682 C83.9315,38.81 83.8244,39.705 84.2746,39.502 C84.838,39.248 85.5,39.027 85.5032,38.785 C85.5053,38.583 85.543,38.27 85.3762,38.229 C85.1653,38.179 84.4791,38.437 84.1193,38.682 M84.1035,39.713 C83.8654,39.787 84.2305,40.397 84.3627,40.392 C84.4949,40.386 84.9481,39.956 85.5409,39.78 C85.9008,39.673 85.5294,39.685 85.5682,39.064 C85.5777,38.922 84.5778,39.567 84.1035,39.713 M86.8178,41.367 C86.8734,41.15 86.5818,41.225 86.6143,41.323 C86.6468,41.422 86.7633,41.584 86.8178,41.367 M68.8334,48.011 C68.9016,48.174 69.0579,48.193 69.0443,48.078 C69.0296,47.963 68.7641,47.849 68.8334,48.011 M70.531,51.213 C70.6758,51.419 70.8657,51.655 70.9738,51.755 C71.0818,51.856 71.1741,51.804 71.2424,51.696 C71.3116,51.588 71.5267,51.274 71.2591,51.149 C71.2591,51.149 70.062,50.545 70.531,51.213 M70.9108,49.137 C70.7692,49.043 69.827,49.027 69.8868,49.181 C70.1522,49.863 70.0746,49.499 71.1049,49.484 C71.299,49.481 71.0535,49.232 70.9108,49.137 M70.3169,48.604 C70.2141,48.567 69.6003,48.472 69.5594,48.548 C69.5196,48.624 69.7084,48.923 69.8144,48.991 C69.9203,49.059 70.318,48.922 70.7681,49.021 C71.1217,49.103 70.4198,48.641 70.3169,48.604 M70.0788,49.699 C69.9466,49.785 70.1827,50.224 70.2792,50.214 C70.8395,50.154 71.1374,50.149 71.3399,50.245 C71.5435,50.342 71.3641,49.833 71.2675,49.637 C71.17,49.441 70.233,49.6 70.0788,49.699 M70.2446,50.465 C70.4628,50.866 70.6328,50.843 71.2654,50.988 C71.5225,51.047 71.5592,50.63 71.3452,50.355 C71.2109,50.182 70.0861,50.174 70.2446,50.465 M70.0851,48.453 C70.3117,48.487 69.2426,48.044 69.1418,48.072 C69.0285,48.104 69.2656,48.365 69.4314,48.43 C69.6371,48.51 69.7294,48.4 70.0851,48.453 M69.4272,48.564 C69.3506,48.486 69.4272,48.564 69.4272,48.564 C69.4272,48.564 69.1828,48.263 69.102,48.225 C69.0212,48.188 68.9488,48.319 68.9257,48.464 C68.9026,48.609 68.7998,49.06 68.9142,49.025 C69.0285,48.99 69.5038,48.642 69.4272,48.564 M70.5908,51.568 C70.4554,51.51 70.1564,51.762 70.1753,51.91 C70.1931,52.058 70.9968,52.233 71.0881,52.224 C71.1805,52.215 70.7272,51.626 70.5908,51.568 M69.5154,48.736 C69.4094,48.749 69.0317,49.078 68.9561,49.202 C68.8176,49.431 68.7956,49.717 68.933,49.67 C69.3181,49.537 69.3695,49.359 69.7986,49.296 C69.8983,49.282 69.6213,48.722 69.5154,48.736 M70.3295,50.794 C70.3652,50.626 69.7787,50.759 69.4472,51.406 C69.3737,51.549 69.8994,52.109 70.4932,51.429 C70.5761,51.334 70.2729,51.056 70.3295,50.794 M68.9488,49.812 C68.8292,49.923 68.8575,50.665 69.1565,50.486 C69.53,50.263 69.9791,50.064 69.9529,49.864 C69.9308,49.698 69.9203,49.438 69.7965,49.408 C69.6392,49.372 69.1775,49.601 68.9488,49.812 M69.059,50.665 C68.8963,50.731 69.23,51.227 69.3244,51.219 C69.4188,51.211 69.6927,50.845 70.0977,50.685 C70.3432,50.588 70.0777,50.607 70.0326,50.093 C70.0221,49.976 69.3821,50.533 69.059,50.665 M71.2004,51.966 C71.214,51.785 71.0147,51.854 71.0493,51.935 C71.0839,52.016 71.1867,52.146 71.2004,51.966 M61.0105,34.052 C61.1322,33.903 61.2885,33.918 61.2361,34.031 C61.1826,34.145 60.8898,34.202 61.0105,34.052 M63.7216,31.177 C63.9304,30.999 64.1927,30.803 64.3302,30.725 C64.4676,30.647 64.539,30.719 64.5683,30.844 C64.5977,30.969 64.6984,31.337 64.3994,31.404 C64.3994,31.404 63.047,31.752 63.7216,31.177 M63.3859,33.37 C63.218,33.435 62.3073,33.242 62.4175,33.098 C62.9022,32.464 62.705,32.817 63.6891,33.061 C63.8748,33.107 63.5548,33.306 63.3859,33.37 M62.6357,33.78 C62.5245,33.795 61.9023,33.755 61.8897,33.668 C61.8771,33.582 62.1583,33.32 62.2832,33.275 C62.408,33.229 62.7438,33.457 63.2096,33.457 C63.5769,33.451 62.7469,33.765 62.6357,33.78 M62.7774,32.614 C62.6787,32.498 63.0543,32.104 63.1435,32.136 C63.6608,32.322 63.9451,32.392 64.1728,32.34 C64.4005,32.287 64.0563,32.764 63.8969,32.942 C63.7374,33.12 62.8907,32.749 62.7774,32.614 M63.1949,31.873 C63.5391,31.514 63.6954,31.575 64.3512,31.568 C64.6177,31.566 64.5127,31.998 64.2148,32.229 C64.0259,32.375 62.9442,32.133 63.1949,31.873 M62.3619,33.882 C62.5906,33.898 61.4155,34.11 61.3284,34.059 C61.2298,34.001 61.5456,33.789 61.7271,33.76 C61.9506,33.724 62.003,33.856 62.3619,33.882 M61.768,33.623 C61.6683,33.685 61.768,33.623 61.768,33.623 C61.768,33.623 61.4312,33.875 61.341,33.895 C61.2518,33.915 61.2266,33.765 61.2529,33.613 C61.2791,33.46 61.3326,32.98 61.4312,33.04 C61.5288,33.101 61.8677,33.561 61.768,33.623 M63.9,30.829 C63.75,30.858 63.5485,30.536 63.6157,30.389 C63.6828,30.243 64.5138,30.244 64.5988,30.274 C64.6838,30.303 64.05,30.801 63.9,30.829 M61.9107,33.468 C61.8142,33.431 61.5624,33.012 61.5319,32.87 C61.4753,32.607 61.5508,32.311 61.6673,32.39 C61.9915,32.61 61.981,32.802 62.3713,32.961 C62.4626,32.999 62.0083,33.506 61.9107,33.468 M63.3869,31.558 C63.3649,31.736 62.8466,31.471 62.7469,30.74 C62.7249,30.578 63.4184,30.126 63.7584,30.95 C63.8056,31.064 63.4216,31.279 63.3869,31.558 M61.7292,32.248 C61.6516,32.11 61.9296,31.362 62.1573,31.61 C62.4406,31.92 62.8046,32.221 62.7113,32.419 C62.6336,32.583 62.536,32.845 62.407,32.847 C62.2444,32.85 61.8782,32.514 61.7292,32.248 M62.1237,31.407 C61.9904,31.304 62.4773,30.874 62.5654,30.903 C62.6535,30.932 62.7931,31.365 63.1278,31.617 C63.3303,31.77 63.0827,31.692 62.8655,32.204 C62.8162,32.321 62.3891,31.613 62.1237,31.407 M64.6187,30.561 C64.5715,30.748 64.4026,30.633 64.4634,30.559 C64.5243,30.485 64.6659,30.375 64.6187,30.561 M42.8582,55.009 L41.0588,50.871 C41.0357,50.704 40.5394,49.89 41.8625,45.23 C42.6344,48.4267 43.2246,51.7231 42.8582,55.009 M66.1915,27.861 L66.0907,28.592 C65.6585,28.621 65.2262,28.64 64.795,28.679 C63.666,28.779 63.2894,28.836 62.3157,28.965 C62.4584,28.856 62.5969,28.743 62.7438,28.64 C63.0365,28.435 63.3292,28.228 63.6335,28.038 C64.4802,27.509 65.3815,27.061 66.3268,26.724 L66.1915,27.861 M77.1515,28.583 C76.2995,31.2662 74.3245,33.4619 72.3335,35.458 C69.6003,38.183 66.5618,40.6 63.5107,42.978 C63.9252,42.557 64.0616,42.432 64.498,41.898 C67.4044,38.339 68.1189,33.665 68.569,29.285 L68.5732,29.234 C69.4335,29.141 68.8701,29.194 70.2676,29.12 C70.8269,29.121 71.3924,29.106 71.9411,29.222 C70.9675,28.598 69.7556,28.583 68.6267,28.551 L68.8187,26.091 C71.7389,25.4694 75.0845,26.4666 77.1515,28.583 M58.1357,22.758 C57.9174,25.403 56.9396,27.948 55.6763,30.279 L55.6469,30.286 C53.2012,30.977 50.7587,31.747 48.5554,33.016 C48.867,32.749 49.1807,32.483 49.4828,32.205 C53.3848,28.614 56.2618,23.907 58.1325,19.049 C58.2614,20.2807 58.2274,21.5251 58.1357,22.758 M65.8589,30.095 C65.1874,33.748 64.2305,37.516 61.8436,40.508 C59.5185,43.421 56.4097,44.617 53.2778,46.54 C53.452,42.752 54.4393,39.005 56.4139,35.714 L56.4192,35.716 C57.4904,36.125 58.5753,36.529 59.5447,37.14 C58.8176,36.232 57.9793,35.406 56.9553,34.811 L57.291,34.314 C58.485,34.384 57.888,34.36 59.0831,34.384 C59.6748,34.376 60.3002,34.403 60.8405,34.129 C59.7945,34.075 58.7463,33.964 57.7422,33.654 C58.3371,32.887 58.6235,32.498 59.3087,31.712 C59.4807,31.514 60.0672,30.886 60.3568,30.635 C60.3705,30.623 60.3925,30.625 60.4103,30.621 C62.2465,30.222 64.0826,29.817 65.946,29.552 L65.8589,30.095 M52.6987,34.997 C49.827,39.317 47.4747,43.274 46.8347,48.49 C46.6806,45.7836 45.5051,42.1661 44.3669,39.314 L44.4204,39.227 C44.6471,38.929 44.8579,38.619 45.0993,38.332 C46.8566,36.1315 49.7894,34.7902 52.6987,34.997 M33.6566,1.533 C30.4408,3.304 30.2142,4.729 29.7599,13.567 C29.572,17.215 28.057,19.875 29.634,28.186 C24.6418,13.682 14.8884,20.199 14.7142,8.932 C13.4751,20.513 24.7719,16.264 27.013,28.675 C23.6251,26.591 13.1908,27.456 6.32267,18.035 C7.78107,20.65 10.0348,25.206 16.3793,27.076 C7.99406,29.55 7.21765,33.337 5.63124,34.972 C18.5491,23.381 31.7471,27.922 37.4359,47.798 C37.3246,48.472 37.3425,49.63 37.4033,50.632 C24.4876,38.786 14.4152,43.842 6.32267,42.805 C6.32267,42.805 8.77362,43.764 12.4312,43.663 C6.69409,44.665 6.32267,45.955 6.32267,45.955 C8.28784,44.196 16.0226,44.604 16.0226,44.604 C16.0226,44.604 9.85745,47.745 8.87854,53.933 C18.462,36.349 32.1625,47.864 36.6888,54.251 C36.6888,54.251 18.8838,40.777 11.0693,66.341 C13.9536,59.672 21.0924,52.21 26.3541,53.14 C16.3594,57.984 21.7628,67.519 21.7628,67.519 C20.3793,62.7617 21.5863,55.0407 28.2616,55.311 C33.932,55.6882 38.337,60.8302 38.8198,66.044 C39.5152,76.5565 30.0812,84.5031 21.8289,90 C21.8289,90 44.3869,83.882 48.2595,87.7 C38.1168,73.75 51.9506,37.974 65.7655,50.826 C65.7655,50.826 65.0132,48.488 62.5528,47.566 C64.3984,47.078 68.7841,47.917 68.7841,47.917 C65.9984,46.724 62.0523,46.589 62.0523,46.589 C62.0523,46.589 78.3182,37.124 84.1707,50.512 C82.151,40.908 68.7841,41.789 68.7841,41.789 C68.7841,41.789 76.694,33.987 84.2662,36.405 C83.3691,35.997 78.8858,34.116 73.7395,36.27 C75.7602,34.555 77.2428,32.607 78.5197,30.32 C79.1408,31.191 80.2771,32.91 80.2771,32.91 C80.2771,32.91 79.9088,32.171 78.761,29.911 C81.4008,25.589 83.8402,23.449 88.7284,21.712 C83.5097,22.921 80.467,25.938 79.1167,27.651 C79.0432,23.49 79.1534,21.57 84.6565,13.924 C84.6565,13.924 79.3853,19.102 78.3812,22.294 C77.8482,24.119 77.7432,26.004 77.3529,27.855 C75.3636,25.318 72.2905,23.731 68.9719,23.81 C69.2426,19.788 69.5594,15.675 71.0745,11.882 C71.0745,11.882 69.1555,14.535 67.7768,22.294 C67.9972,18.222 66.8105,11.803 66.8105,11.803 C66.8871,15.873 66.8724,19.949 66.5734,24.012 C64.4361,24.341 62.3954,25.097 60.445,25.984 C60.9339,22.821 60.1124,20.194 59.0097,17.252 L59.4818,15.694 L58.8659,16.984 C57.9993,14.825 57.034,12.514 55.9743,10.436 C56.9805,13.127 57.8408,15.904 58.1031,18.766 C56.7507,21.289 53.7206,25.397 51.6757,27.419 C48.3707,30.688 45.8998,31.716 42.8991,35.262 C42.4196,33.677 41.9495,32.077 41.853,30.418 C41.3295,23.017 49.8836,22.294 48.5554,8.137 C48.5554,8.137 48.5554,15.595 42.8582,22.294 C44.8244,19.442 42.9778,8.137 42.9778,8.137 L42.8582,8.137 C43.5569,20.99 39.2174,24.13 38.7715,29.749 C38.526,32.843 39.4755,36.193 40.2624,39.174 C39.2814,41.076 39.0202,41.756 38.5627,43.771 C33.1068,32.126 32.1615,32.64 31.6547,30.605 C29.5794,22.27 30.359,16.397 31.5603,14.328 C33.1698,11.56 35.7529,9.565 38.2763,7.644 C34.1267,9.662 32.2696,11.59 31.3798,12.842 C30.6559,9.923 30.2142,3.885 33.6566,1.533 " style="" stroke="none" fill-rule="evenodd" fill="#000000" fill-opacity="1"></path></g></g></svg>