<svg xmlns="http://www.w3.org/2000/svg" xmlns:xlink="http://www.w3.org/1999/xlink" version="1.1" x="0px" y="0px" viewBox="0 0 283.46 283.46" enable-background="new 0 0 283.46 283.46" xml:space="preserve"><path d="M237.984,194.156c0,0-1.03-26.992,3.242-37.382c3.996-9.723,17.395-21.5,17.395-21.5l-0.039-0.07  c1.629,1.981,4.066,3.273,6.831,3.273h1.223c4.9,0,8.873-3.974,8.873-8.874c0-4.901-3.973-8.875-8.873-8.875h-1.223  c-4.9,0-8.874,3.973-8.874,8.875c0,1.509,0.412,2.91,1.078,4.154c-1.143,1.143-9.932,9.976-14.663,15.996  c-3.38,4.28-6.105,9.756-6.105,9.756s-1.526-6.972-2.861-11.701c-1.192-4.219-3.758-10.21-4.298-11.456  c4.036-0.834,7.071-4.408,7.071-8.69c0-4.9-3.974-8.875-8.874-8.875h-1.223c-4.9,0-8.875,3.974-8.875,8.875  c0,4.901,3.975,8.875,8.875,8.875h1.223c0.005,0,0.01-0.001,0.015-0.001c0.254,0.443,5.874,10.444,6.086,30.721  c0.081,7.744-1.476,27.207-1.476,27.207l-15.547-0.449l1.356-4.178l-0.541-6.375l-4.429,0.648l-1.12,9l-4.278-1.126l0.449-9.687  l-2.83,8.403l-2.126-6.151l-0.226,8.786c0,0-8.235,0.232-8.235-1.123c0-1.281,1.069-29.985,1.177-32.87h1.025  c4.9,0,8.875-3.975,8.875-8.875s-3.975-8.874-8.875-8.874h-1.223c-4.9,0-8.873,3.974-8.873,8.874c0,4.373,3.169,7.986,7.333,8.72  l-1.062,18.117c0,0-2.896-6.834-6.05-8.858c-3.155-2.027-2.917,6.049-2.917,6.049s0.271-1.782,1.62-3.132  c1.354-1.352,6.365,8.863,6.591,11.343c0.227,2.48-0.878,10.406-0.878,10.406l-23.208,0.224l5.857-13.067l-3.603,3.83l-0.226-6.532  l-4.281,9.014l-2.929-3.38l0.451,9.463l-8.786,0.675c0,0,10.323-46.416,11.676-48.67c1.351-2.252,9.275-9.91,9.727-10.81  c0.453-0.899,5.635,3.38,5.635,3.38s-2.929-4.283-4.055-5.635c-1.127-1.351-9.15,6.914-9.15,6.914s12.938-24.868,14.262-26.47  c9.116-11.028,22.269-21.719,26.17-24.802c2.387,3.329,6.28,5.506,10.69,5.506c7.269,0,13.158-5.891,13.158-13.157  c0-7.269-5.89-13.159-13.158-13.159c-7.268,0-13.159,5.891-13.159,13.159c0,2.138,0.522,4.15,1.428,5.934  c-4.811,3.887-19.55,16.086-26.101,24.79c-2.252,2.252-17.435,28.722-17.435,28.722s-2.929-11.945-4.281-12.618  c-1.352-0.674-6.534,5.859-6.534,5.859s4.957-2.705,5.859-2.705c0.9,0,4.203,13.753,2.402,17.583  c-1.801,3.832-13.447,46.41-13.447,46.41l-16.149,0.551c0,0,6.073-14.406,0.534-12.496c-3.134,1.08-4.438,13.069-4.438,13.069  l-6.309-1.801c0,0,1.578-23.656,1.578-25.009c0-1.355,7.96-16.141,11.114-17.267c3.152-1.125,7.136,2.393,7.136,2.393  s-2.792-5.066-5.948-5.743c-3.154-0.675-9.6,7.772-9.6,7.772l0.628-19.21c0.438,0.044,0.884,0.067,1.335,0.067  c7.268,0,13.158-5.891,13.158-13.157c0-7.269-5.89-13.159-13.158-13.159c-7.268,0-13.158,5.89-13.158,13.159  c0,5.974,3.982,11.009,9.435,12.614l-2.294,25.318c0,0-6.981-10.811-10.365-11.714c-2.709-0.722-6.985,12.621-6.985,12.621  s5.992-7.583,7.345-8.26c1.352-0.677,6.851,12.086,7.526,13.889c0.676,1.801-2.92,25.68-2.92,25.68l-7.221,2.482l-3.76-12.34  l-1.404,11.561l-2.27-8.234l-1.909,9.023l-3.38-6.76l0.101,7.161l-14.187-1.311c0,0-0.873-4.945,0.252-7.875  c1.509-3.667,5.51-9.833,5.51-9.833l-7.116,7.569c0,0-1.813-5.443-2.333-7.886c-1.246-5.841-10.321-6.381-10.321-6.381  c1.188,7.779,9.865,14.548,10.695,15.125c1.744,1.211-0.519,10.405-0.519,10.405l-13.624,2.544l0.823-12.598l-2.346,11.209  l-1.762-9.568l-0.183,10.217l-2.282-6.794l0.769,8.522l-7.616,1.2c0,0-0.547-8.49-0.274-15.61c0.274-7.12,0.521-19.953,0.521-19.953  s7.729-16.442,9.098-18.36c1.379-1.596,7.36,5.726,7.36,5.726s-4.38-9.308-6.846-10.277c-2.464-0.967-10.133,19.589-11.229,14.113  c-1.333-6.665-0.236-6.635-8.283-34.917c4.007-2.253,6.72-6.541,6.72-11.467c0-7.269-5.891-13.159-13.158-13.159  s-13.158,5.891-13.158,13.159c0,7.266,5.891,13.157,13.158,13.157c1.401,0,2.748-0.222,4.014-0.627  c1.473,6.074,7.986,34.086,6.08,46.98c-1.363,9.214-1.621,32.63-1.621,32.63l-12.375,1.621c0,0-6.297-16.157-10.132-16.157  c-3.833,0-6.572,7.942-6.572,7.942l6.37-4.527c1.772,0,5.758,12.849,5.758,12.849s-17.884-0.211-20.54,3.781  c-0.225,0.34,1.945,0,1.945,0l261.241-7.239c0,0,4.821-0.11,4.322-0.648C269.907,193.364,237.984,194.156,237.984,194.156z"></path></svg>