<svg xmlns="http://www.w3.org/2000/svg" xmlns:xlink="http://www.w3.org/1999/xlink" version="1.1" x="0px" y="0px" viewBox="0 0 100 100" enable-background="new 0 0 100 100" xml:space="preserve"><g><path d="M50.004,28.114c-12.09,0-21.886,9.8-21.886,21.886s9.796,21.882,21.886,21.882c12.082,0,21.878-9.796,21.878-21.882   S62.086,28.114,50.004,28.114z"></path><path d="M57.087,7.076C57.087,3.174,53.906,0,50.004,0S42.92,3.174,42.92,7.076v5.648c0,3.906,3.182,7.087,7.084,7.087   s7.083-3.181,7.083-7.087V7.076z"></path><path d="M57.087,87.265c0-3.898-3.181-7.073-7.083-7.073s-7.084,3.175-7.084,7.073v5.655c0,3.902,3.182,7.076,7.084,7.076   s7.083-3.174,7.083-7.076V87.265z"></path><path d="M28.651,18.64l-4.003-3.996c-1.327-1.338-3.109-2.074-4.999-2.074s-3.664,0.736-5.006,2.074   c-1.335,1.338-2.07,3.116-2.07,5.006c0,1.887,0.735,3.664,2.07,4.999l3.996,4.003c1.334,1.335,3.116,2.07,5.006,2.07   s3.672-0.735,5.006-2.07C31.407,25.896,31.407,21.406,28.651,18.64z"></path><path d="M85.356,75.345l-3.996-3.996c-1.342-1.339-3.123-2.074-5.006-2.074c-1.89,0-3.672,0.735-5.006,2.074   c-2.763,2.759-2.756,7.249,0,10.008l4.003,3.997c1.335,1.338,3.109,2.073,5.006,2.073c1.883,0,3.657-0.739,4.992-2.077   c1.342-1.331,2.077-3.105,2.085-4.992C87.435,78.461,86.698,76.683,85.356,75.345z"></path><path d="M12.731,42.92H7.076C3.174,42.92,0,46.098,0,50c0,3.898,3.174,7.076,7.076,7.076h5.655c3.902,0,7.077-3.178,7.077-7.076   C19.809,46.098,16.634,42.92,12.731,42.92z"></path><path d="M92.924,42.92h-5.655c-3.902,0-7.069,3.174-7.069,7.076s3.167,7.073,7.069,7.073h5.655c3.902,0,7.076-3.171,7.076-7.073   S96.826,42.92,92.924,42.92z"></path><path d="M30.722,76.344c0-1.891-0.735-3.668-2.07-4.995c-1.334-1.339-3.116-2.074-5.006-2.074c-1.896,0-3.672,0.735-5.006,2.074   l-4.004,3.996c-1.334,1.334-2.07,3.112-2.07,5.002c0,1.887,0.736,3.665,2.078,5.003s3.116,2.077,4.999,2.077   s3.664-0.735,5.006-2.073l4.003-4.004C29.986,80.016,30.729,78.237,30.722,76.344z"></path><path d="M85.356,14.644c-1.334-1.342-3.116-2.078-5.013-2.078c-1.891,0-3.665,0.736-4.992,2.07l-4.003,4   c-2.756,2.756-2.756,7.246-0.008,10.013c1.335,1.334,3.116,2.07,5.006,2.07c1.897,0,3.672-0.736,5.007-2.07l4.003-4   C88.119,21.886,88.112,17.396,85.356,14.644z"></path></g></svg>