<svg xmlns="http://www.w3.org/2000/svg" xmlns:xlink="http://www.w3.org/1999/xlink" version="1.1" x="0px" y="0px" viewBox="0 0 100 100" style="enable-background:new 0 0 100 100;" xml:space="preserve"><style type="text/css">
	.st0{fill:none;stroke:#000000;stroke-width:2;stroke-linecap:round;stroke-linejoin:round;stroke-miterlimit:10;}
	.st1{stroke:#000000;stroke-miterlimit:10;}
</style><circle cx="23" cy="56.3" r="1.4"></circle><circle cx="51.7" cy="61.3" r="1.4"></circle><circle cx="38.5" cy="58.4" r="1.4"></circle><circle cx="21.6" cy="61.9" r="1.4"></circle><circle cx="33" cy="63.4" r="1.4"></circle><circle cx="45.8" cy="57" r="1.4"></circle><circle cx="59.5" cy="56.3" r="1.4"></circle><circle cx="16.4" cy="57.4" r="1.1"></circle><circle cx="28.2" cy="60.5" r="1.1"></circle><circle cx="41.7" cy="63.4" r="1.1"></circle><circle cx="52.6" cy="56.5" r="1.1"></circle><circle cx="32.4" cy="57" r="1.1"></circle><circle cx="48.4" cy="66.9" r="1.4"></circle><circle cx="77.1" cy="72.9" r="1.4"></circle><circle cx="63.9" cy="69.1" r="1.4"></circle><circle cx="47" cy="72.6" r="1.4"></circle><circle cx="58.5" cy="74" r="1.4"></circle><circle cx="71.2" cy="67.6" r="1.4"></circle><circle cx="84.9" cy="66.9" r="1.4"></circle><circle cx="41.9" cy="68" r="1.1"></circle><circle cx="53.6" cy="71.1" r="1.1"></circle><circle cx="67.2" cy="74" r="1.1"></circle><circle cx="78" cy="67.1" r="1.1"></circle><ellipse transform="matrix(6.042121e-02 -0.9982 0.9982 6.042121e-02 11.4936 136.7035)" cx="78.4" cy="62.2" rx="1.4" ry="1.4"></ellipse><ellipse transform="matrix(6.042121e-02 -0.9982 0.9982 6.042121e-02 3.981 119.4302)" cx="65.4" cy="57.6" rx="1.4" ry="1.4"></ellipse><ellipse transform="matrix(6.039983e-02 -0.9982 0.9982 6.039983e-02 11.8998 125.8642)" cx="72.8" cy="56.6" rx="1.4" ry="1.4"></ellipse><ellipse transform="matrix(6.039983e-02 -0.9982 0.9982 6.039983e-02 24.6566 139.6495)" cx="86.5" cy="56.7" rx="1.4" ry="1.4"></ellipse><ellipse transform="matrix(6.040396e-02 -0.9982 0.9982 6.040396e-02 -2.3434 125.0878)" cx="65.3" cy="63.8" rx="1.1" ry="1.1"></ellipse><ellipse transform="matrix(6.040568e-02 -0.9982 0.9982 6.040568e-02 5.889 128.8437)" cx="71.4" cy="61.3" rx="1.1" ry="1.1"></ellipse><ellipse transform="matrix(6.040396e-02 -0.9982 0.9982 6.040396e-02 18.0487 142.8231)" cx="84.9" cy="61.8" rx="1.1" ry="1.1"></ellipse><ellipse transform="matrix(6.040568e-02 -0.9982 0.9982 6.040568e-02 -6.4499 117.0351)" cx="58.9" cy="61.9" rx="1.1" ry="1.1"></ellipse><ellipse transform="matrix(6.040396e-02 -0.9982 0.9982 6.040396e-02 18.468 132.5982)" cx="79.7" cy="56.5" rx="1.1" ry="1.1"></ellipse><circle cx="57.9" cy="67.6" r="1.1"></circle><circle cx="40.6" cy="74.3" r="1.4"></circle><circle cx="27.9" cy="74" r="1.4"></circle><circle cx="14.7" cy="70.1" r="1.4"></circle><circle cx="87.8" cy="74" r="1.4"></circle><circle cx="22" cy="68.7" r="1.4"></circle><circle cx="35.7" cy="68" r="1.4"></circle><circle cx="34.5" cy="75.4" r="1.1"></circle><circle cx="17.9" cy="75" r="1.1"></circle><circle cx="28.8" cy="68.1" r="1.1"></circle><circle cx="15.4" cy="63.7" r="1.1"></circle><path d="M89.9,50h-4.5c0.1,0,0.2-0.1,0.3-0.1c1.4-0.9,2.5-2.1,3.1-3.5c0.6-1.5,0.6-2.9-0.2-4.1c-1.3-2.2-4.5-2.6-7.4-1.1  c0.1-0.4,0.2-0.9,0.2-1.3c0-4-3.3-7.3-7.3-7.3s-7.3,3.3-7.3,7.3c0,0.4,0.1,0.8,0.2,1.2c-2.9-1.5-6-1.1-7.4,1.1  c-0.7,1.2-0.8,2.6-0.2,4.1c0.6,1.4,1.7,2.6,3.1,3.5c0.1,0,0.2,0.1,0.3,0.1H48.8c0.8-0.3,1.5-0.6,2-0.9c1.9-1.2,3.4-2.8,4.1-4.6  c0.8-1.9,0.7-3.8-0.2-5.3c-1.8-3-6.6-3.4-10.6-0.9c0.3-0.9,0.5-1.8,0.5-2.5c0-5.4-4.4-9.8-9.8-9.8s-9.8,4.4-9.8,9.8  c0,0.7,0.2,1.6,0.5,2.5c-1.8-1.1-3.9-1.7-5.8-1.5c-2.1,0.1-3.8,1-4.7,2.5c-0.9,1.5-1,3.4-0.2,5.3c0.8,1.8,2.2,3.5,4.1,4.6  c0.6,0.3,1.2,0.6,2,0.9h-8.4c-0.6,0-1,0.4-1,1s0.4,1,1,1h77.3c0.6,0,1-0.4,1-1S90.4,50,89.9,50z M20,47.4c-1.5-1-2.7-2.3-3.3-3.7  c-0.6-1.3-0.5-2.6,0.1-3.5c0.6-0.9,1.7-1.5,3.1-1.6c0.1,0,0.2,0,0.4,0c1.4,0,3,0.5,4.4,1.4c2.3,1.4,5.4,6.5,7.2,9.6  C28.3,49.4,22.3,48.8,20,47.4z M27.1,35.7c0-4.3,3.5-7.8,7.8-7.8s7.8,3.5,7.8,7.8c0,3.3-5.1,10.3-7.8,13.7  C32.1,46,27.1,39,27.1,35.7z M45.1,40c1.5-0.9,3-1.4,4.4-1.4c1.5,0,2.8,0.5,3.5,1.6c0.6,0.9,0.6,2.2,0.1,3.5  c-0.6,1.4-1.8,2.8-3.3,3.7c-2.3,1.4-8.3,2-11.8,2.2C39.7,46.5,42.8,41.4,45.1,40z M63.5,48.2c-1.1-0.7-1.9-1.6-2.3-2.6  c-0.4-0.9-0.4-1.7,0-2.3c0.4-0.7,1.3-1,2.3-1c1,0,2.1,0.3,3.1,0.9c1.5,0.9,3.6,4.2,4.8,6.4C68.8,49.5,65,49.1,63.5,48.2z M68.7,40  c0-2.9,2.4-5.3,5.3-5.3s5.3,2.4,5.3,5.3c0,2-3,6.5-5.3,9.4C71.7,46.5,68.7,42,68.7,40z M76.7,49.7c1.3-2.2,3.3-5.5,4.8-6.4  c1-0.6,2.1-0.9,3.1-0.9c1,0,1.8,0.3,2.3,1c0.4,0.6,0.4,1.4,0,2.3c-0.4,1-1.2,1.9-2.3,2.6C83.1,49.1,79.3,49.5,76.7,49.7z"></path></svg>