<svg data-v-1084b650="" xmlns="http://www.w3.org/2000/svg" viewBox="0 0 300 300"><!----> <!----> <rect data-v-1084b650="" fill="#9CD124" x="0" y="0" width="300px" height="300px" class="logo-background-square"></rect> <!----> <!----> <g data-v-1084b650="" id="3065980b-bcfa-2a17-107d-1b68b57c3a76" fill="#43B33F" stroke="none" transform="matrix(0.7999999999999998,0,0,0.7999999999999998,29.996455383300813,29.990002441406276)"><svg xmlns="http://www.w3.org/2000/svg" xmlns:xlink="http://www.w3.org/1999/xlink" version="1.1" x="0px" y="0px" viewBox="0 0 24 24" enable-background="new 0 0 24 24" xml:space="preserve"><g><g><path d="M14.061,12.739c-0.008,0-0.02-0.004-0.026-0.007c0.007,0.003,0.015,0.003,0.022,0.003    C14.057,12.739,14.061,12.739,14.061,12.739z"></path><path fill="#000000" d="M10.136,12.739c0.007,0.004,0.019,0.004,0.03,0.004H9.917v-0.049c0.022,0.019,0.049,0.03,0.075,0.034    h0.004c0.015,0,0.026-0.008,0.042-0.016c0.029,0.016,0.06,0.026,0.094,0.026H10.136z"></path><path fill="#000000" d="M14.166,12.739c-0.008,0.004-0.011,0.004-0.015,0.004c-0.012,0.004-0.02,0.004-0.026,0.004    c-0.008,0-0.02,0-0.026-0.004h0.026C14.14,12.743,14.155,12.739,14.166,12.739z"></path><path fill="#000000" d="M10.167,12.743H9.917v-0.049c0.022,0.019,0.049,0.03,0.075,0.034h0.004c0.015,0,0.026-0.008,0.042-0.016    c0.029,0.016,0.06,0.026,0.094,0.026h0.004C10.143,12.743,10.155,12.743,10.167,12.743z"></path><path fill="#000000" d="M14.022,12.177c-0.008,0.004-0.011,0.012-0.019,0.016c-0.034,0.008-0.067,0.026-0.095,0.049    c0.004-0.007,0.008-0.019,0.012-0.03c0.004-0.007,0.008-0.015,0.008-0.019c0.004-0.008,0.004-0.012,0.004-0.016H14.022z"></path><path fill="#000000" d="M14.061,12.739c-0.008,0-0.02-0.004-0.026-0.007c0.007,0.003,0.015,0.003,0.022,0.003    C14.057,12.739,14.061,12.739,14.061,12.739z"></path><path fill="#000000" d="M14.166,12.739c-0.008,0.004-0.011,0.004-0.015,0.004h-0.026C14.14,12.743,14.155,12.739,14.166,12.739z"></path><path fill="#000000" d="M19.849,12.177h-0.521c2.849-2.576,2.679-8.983,2.668-9.273c-0.004-0.147-0.121-0.268-0.269-0.275    c-0.15,0-0.274,0.099-0.294,0.245c-0.26,1.913-2.444,4.505-4.464,6.535c0.317-2.128-0.022-4.275-0.037-4.377    c-0.022-0.147-0.151-0.253-0.302-0.237c-0.147,0.011-0.261,0.132-0.261,0.279c-0.007,0.897-0.565,2.222-1.63,3.852    c-0.399-3.444-2.264-7.138-2.347-7.304c-0.049-0.094-0.146-0.155-0.252-0.155c-0.106,0-0.204,0.061-0.253,0.155    c-0.11,0.215-2.008,3.984-2.37,7.444c-1.132-1.66-1.731-3.011-1.75-3.928C7.763,4.99,7.65,4.869,7.502,4.857    C7.36,4.851,7.227,4.952,7.205,5.1C7.189,5.205,6.861,7.457,7.25,9.627c-2.403-2.385-4.44-4.962-4.682-6.75    C2.549,2.729,2.42,2.628,2.273,2.632C2.126,2.64,2.009,2.76,2.005,2.907c-0.012,0.29-0.181,6.696,2.667,9.27H4.077    c-0.713,0-1.29,0.51-1.29,1.136v1.068c0,0.626,0.577,1.136,1.29,1.136h0.642l0.943,5.396c0.004,0.015,0.358,1.622,2.634,1.622    h7.331c2.275,0,2.634-1.607,2.638-1.63l0.939-5.388h0.646c0.713,0,1.29-0.51,1.29-1.136v-1.068    C21.139,12.687,20.562,12.177,19.849,12.177z M16.713,10.457c1.69-1.638,3.667-3.784,4.663-5.72    c-0.166,2.29-0.773,6.093-2.988,7.439h-3.512c0.403-0.361,0.916-0.837,1.493-1.392C16.482,10.676,16.6,10.566,16.713,10.457z     M14.709,11.486c0.022-0.132,0.046-0.268,0.061-0.407c0.008-0.071,0.016-0.144,0.022-0.219c0.008-0.105,0.016-0.219,0.02-0.332    c0.008-0.223,0.008-0.453,0-0.694c0.792-1.143,1.361-2.146,1.713-3.011c0.037,0.955,0.003,2.174-0.265,3.282    c-0.14,0.137-0.282,0.272-0.418,0.404c-0.22,0.208-0.427,0.403-0.619,0.581c-0.188,0.177-0.366,0.343-0.528,0.49    c0-0.004,0-0.004,0-0.008l-0.004,0.004C14.698,11.547,14.705,11.517,14.709,11.486z M12.14,2.405    c0.581,1.264,1.977,4.554,2.101,7.354c0.004,0.071,0.008,0.144,0.008,0.211c0,0.068,0.004,0.136,0.004,0.204    c0,0.17-0.004,0.34-0.015,0.498c-0.005,0.03-0.005,0.061-0.008,0.091c-0.008,0.094-0.015,0.188-0.027,0.279    c-0.011,0.09-0.022,0.181-0.037,0.268c-0.03,0.177-0.067,0.344-0.113,0.506c-0.019,0.082-0.041,0.158-0.071,0.233    c-0.016,0.041-0.03,0.087-0.045,0.128h0.086c-0.008,0.004-0.011,0.012-0.019,0.016c-0.034,0.008-0.067,0.026-0.095,0.049    c0.004-0.007,0.008-0.019,0.012-0.03c0.004-0.007,0.008-0.015,0.008-0.019c0.004-0.008,0.004-0.012,0.004-0.016h-3.578    C9.197,9.242,11.374,4.069,12.14,2.405z M14.061,12.739c-0.008,0-0.02-0.004-0.026-0.007c0.007,0.003,0.015,0.003,0.022,0.003    C14.057,12.739,14.061,12.739,14.061,12.739z M7.634,6.892c0.362,0.856,0.947,1.853,1.751,2.977    c-0.011,0.646,0.037,1.23,0.147,1.751c-0.441-0.393-0.989-0.887-1.593-1.457C7.661,9.061,7.612,7.846,7.634,6.892z M2.625,4.737    c1.414,2.746,4.799,5.92,6.531,7.439H5.609C3.394,10.83,2.787,7.027,2.625,4.737z M17.709,20.795    c-0.012,0.049-0.283,1.173-2.083,1.173H8.295c-1.797,0-2.067-1.124-2.075-1.162l-0.929-5.289h13.341L17.709,20.795z     M20.572,14.381c0,0.312-0.324,0.569-0.724,0.569H4.077c-0.399,0-0.725-0.257-0.725-0.569v-1.068c0-0.312,0.325-0.569,0.725-0.569    h5.841v-0.049c0.022,0.019,0.049,0.03,0.075,0.034h0.004c0.015,0,0.026-0.008,0.042-0.016c0.029,0.016,0.06,0.026,0.094,0.026    h0.004c0.007,0.004,0.019,0.004,0.03,0.004h3.958c0.015,0,0.03-0.004,0.041-0.004c-0.008,0.004-0.011,0.004-0.015,0.004h5.697    c0.399,0,0.724,0.257,0.724,0.569V14.381z"></path></g><path fill="#000000" d="M15.223,11.091c-0.188,0.177-0.366,0.343-0.528,0.49c0-0.004,0-0.004,0-0.008   C14.86,11.423,15.038,11.261,15.223,11.091z"></path><path fill="#000000" d="M14.125,12.743h0.026c0.004,0,0.007,0,0.015-0.004C14.155,12.739,14.14,12.743,14.125,12.743z    M14.69,11.577l0.004-0.004c0.008-0.026,0.011-0.057,0.015-0.087C14.705,11.517,14.698,11.547,14.69,11.577z M13.937,12.177   c0,0.004-0.004,0.012-0.008,0.016c0,0.004-0.004,0.012-0.008,0.019c-0.004,0.012-0.008,0.023-0.012,0.03   c0.027-0.022,0.061-0.041,0.095-0.049c0.008-0.004,0.011-0.012,0.019-0.016H13.937z"></path><path fill="#000000" d="M10.039,12.713c-0.016,0.008-0.027,0.016-0.042,0.016c0.026,0.011,0.049,0.015,0.075,0.015h0.026   c0.012,0,0.022,0,0.034-0.004C10.098,12.739,10.068,12.729,10.039,12.713z"></path><path fill="#000000" d="M9.917,12.694v0.049c0.026,0,0.049-0.004,0.075-0.015C9.966,12.725,9.94,12.713,9.917,12.694z"></path><path fill="#000000" d="M14.061,12.739c-0.008,0-0.02-0.004-0.026-0.007c0.007,0.003,0.015,0.003,0.022,0.003   C14.057,12.739,14.061,12.739,14.061,12.739z"></path><path fill="#000000" d="M14.166,12.739c-0.008,0.004-0.011,0.004-0.015,0.004c-0.012,0.004-0.02,0.004-0.026,0.004   c-0.008,0-0.02,0-0.026-0.004h0.026C14.14,12.743,14.155,12.739,14.166,12.739z"></path><path fill="#000000" d="M14.022,12.177c-0.008,0.004-0.011,0.012-0.019,0.016c-0.034,0.008-0.067,0.026-0.095,0.049   c0.004-0.007,0.008-0.019,0.012-0.03c0.004-0.007,0.008-0.015,0.008-0.019c0.004-0.008,0.004-0.012,0.004-0.016H14.022z"></path></g></svg></g></svg>